<svg xmlns="http://www.w3.org/2000/svg" xmlns:xlink="http://www.w3.org/1999/xlink" xmlns:lucid="lucid" width="2238.88" height="845.27"><g transform="translate(330.21245659722223 -878.9999999892356)" lucid:page-tab-id="0_0"><path d="M-20 1362.5h120v120H-20z" fill-opacity="0"/><path d="M70 1432.97v-27.57c0-.32-.1-.55-.27-.7-.44-.4-1.07-.4-1.42 0l-28.2 28.2-29.38 29.37v20.23H96.16c2.14-.08 3.84-1.88 3.84-3.98v-73.12c0-.32-.1-.55-.27-.7-.44-.4-1.07-.4-1.43 0z" fill="#005ba1"/><path d="M10 1384.25c-16.56 0-30-4.93-30-11.17v105.61c.06 2.07 1.86 3.82 4.02 3.82H40v-109.44c0 6.24-13.44 11.17-30 11.17z" fill="url(#a)"/><path d="M69.58 1450.58H81.7c1.32 0 1.98.66 1.98 1.98v12.12c0 1.32-.66 1.98-1.98 1.98H69.58c-1.32 0-1.98-.66-1.98-1.98v-12.12c0-1.32.66-1.98 1.98-1.98zM41.74 1450.58h12.12c1.32 0 1.98.66 1.98 1.98v12.12c0 1.32-.66 1.98-1.98 1.98H41.74c-1.32 0-1.98-.66-1.98-1.98v-12.12c0-1.32.66-1.98 1.98-1.98zM13.9 1450.58h12.12c1.32 0 1.98.66 1.98 1.98v12.12c0 1.32-.66 1.98-1.98 1.98H13.9c-1.32 0-1.98-.66-1.98-1.98v-12.12c0-1.32.66-1.98 1.98-1.98z" fill="#fff"/><path d="M40 1373.1c0 6-13.44 10.88-30 10.88-16.56 0-30-4.6-30-10.9 0-6.26 13.44-10.58 30-10.58 16.56 0 30 4.88 30 10.6" fill="#eaeaea"/><path d="M33 1372.46c0 3.9-10.32 7.07-23.04 7.07-12.7 0-23.04-3.04-23.04-7.07s10.74-6.85 23.14-6.85c12.35 0 22.94 3.04 22.94 6.86" fill="#50e6ff"/><path d="M10.02 1374.08c-6.5-.13-12.03.66-18.24 2.62 6.2 2.02 11.7 2.84 18.24 2.67 6.53.17 12.04-.64 18.24-2.67-6.2-1.96-11.74-2.75-18.24-2.62z" fill="#198ab3"/><use xlink:href="#b" transform="matrix(1,0,0,1,-50,1491.5) translate(31.840277777777786 21.52777777777778)"/><use xlink:href="#c" transform="matrix(1,0,0,1,-50,1491.5) translate(99.78732638888889 21.52777777777778)"/><use xlink:href="#d" transform="matrix(1,0,0,1,-50,1491.5) translate(50.33528645833333 53.79340277777778)"/><path d="M240 1266a6 6 0 0 1 6-6h834a6 6 0 0 1 6 6v328a6 6 0 0 1-6 6H246a6 6 0 0 1-6-6z" stroke="#000" stroke-width="2" fill="#fff"/><path d="M1240 1370h105v120h-105z" fill-opacity="0"/><path d="M1292.5 1370l-52.5 29.88v59.88l52.5 30.24 52.5-29.88v-60zm42.84 83.76l-42.84 24.72-42.84-24.36v-48.24l42.84-24.72 42.84 24.72z" fill="#0078d4"/><path d="M1292.5 1370l-52.5 29.96 9.66 5.92 42.84-24.7 42.84 24.7 9.66-5.92-52.5-29.96z" fill="url(#e)"/><path d="M1317.53 1439.9c-.58-.9-1.23-1.52-2.17-1.97-5.7-12.35-16.4-20.37-29.98-22.26l43.34-24.96-10.04-5.76-49.34 28.48c-1.6.9-2.52 2.43-2.52 4.32 0 2.7 2.24 4.96 5.05 4.96.22 0 .36-.1.58-.18l.87 3.52c13.07-3.07 26.15 2.97 32.3 14.95l-49.13 28.3 10.03 5.76 49.12-28.4c.72-.35 1.23-.9 1.66-1.52l.52-.1c-.08-.17-.15-.35-.15-.62.72-1.44.65-3.07-.14-4.5z" fill="#50e6ff"/><path d="M1271.78 1405.34c-6.8 0-12.36 5.5-12.36 12.32 0 6.86 5.55 12.37 12.36 12.37 6.86 0 12.35-5.5 12.35-12.37 0-6.8-5.5-12.32-12.36-12.32z" fill="url(#f)"/><path d="M1313 1429.94c-6.8 0-12.34 5.5-12.34 12.32 0 6.86 5.55 12.37 12.35 12.37 6.88 0 12.36-5.5 12.36-12.37 0-6.8-5.48-12.32-12.35-12.32z" fill="url(#g)"/><use xlink:href="#b" transform="matrix(1,0,0,1,1210,1499) translate(3.203125 21.52777777777778)"/><use xlink:href="#h" transform="matrix(1,0,0,1,1210,1499) translate(71.1501736111111 21.52777777777778)"/><use xlink:href="#i" transform="matrix(1,0,0,1,1210,1499) translate(34.339192708333336 53.79340277777778)"/><path d="M1020 1540h111v120h-111z" fill-opacity="0"/><path d="M1020 1571.32v3.6l55.5 31.2 49.62-27.96v11.28l-49.62 28.2-52.73-29.88-2.77 1.44v21.72l55.5 31.08 49.62-27.84v11.28l-49.62 28.08-52.73-29.88-2.77 1.56v3.6l55.5 31.2 55.5-31.2v-21.6l-2.78-1.56-52.72 29.88-49.62-28.08v-11.16l49.62 27.84 55.5-31.2v-21.36l-2.78-1.44-52.72 29.88-47.06-26.76 47.06-26.52 38.74 21.84 3.44-1.8v-3L1075.5 1540z" fill="#ff3621"/><use xlink:href="#j" transform="matrix(1,0,0,1,990,1669) translate(54.65147569444445 21.52777777777778)"/><use xlink:href="#k" transform="matrix(1,0,0,1,990,1669) translate(29.152343750000007 53.79340277777778)"/><path d="M1760 1387.5h120v85h-120z" fill-opacity="0"/><path d="M1763.72 1387.5h112.68c1.92-.1 3.48 1.36 3.6 3.23v78.54c-.12 1.87-1.68 3.32-3.6 3.23h-112.68c-1.92.1-3.6-1.36-3.72-3.23v-78.37c.12-1.96 1.68-3.5 3.6-3.4z" fill="url(#l)"/><path d="M1844.02 1397.95h8.25c.65 0 .98.32.98 1v60.4c0 .68-.33 1-.98 1h-8.25c-.65 0-.98-.32-.98-1v-60.4c0-.68.33-1 .98-1z" fill="#fff" fill-opacity=".9"/><path d="M1771.93 1447.6h54.95c.74 0 1.1.34 1.1 1.05v10.8c0 .72-.36 1.07-1.1 1.07h-54.95c-.74 0-1.08-.35-1.08-1.06v-10.8c0-.72.34-1.07 1.08-1.07z" fill="#fff" fill-opacity=".6"/><path d="M1859.52 1423.54h8.7c.5 0 .75.26.75.74v35.4c0 .5-.25.75-.75.75h-8.7c-.5 0-.76-.26-.76-.74v-35.42c0-.48.26-.74.76-.74z" fill="#fff" fill-opacity=".9"/><path d="M1820.76 1401.78l-14.18 25.3-15-15.34-15.5 20.12 3.6 2.83 12.28-15.87 15.6 15.93 17.24-30.67-4.04-2.32z" fill="#fff"/><path d="M1791.76 1409.43c3.22 0 5.84 2.63 5.84 5.87 0 3.23-2.62 5.86-5.84 5.86-3.22 0-5.84-2.63-5.84-5.87s2.62-5.87 5.84-5.87zM1807.6 1423.96c3.22 0 5.84 2.63 5.84 5.87s-2.62 5.87-5.84 5.87c-3.22 0-5.84-2.63-5.84-5.87s2.62-5.87 5.84-5.87zM1822.24 1397.8c3.22 0 5.84 2.6 5.84 5.85 0 3.24-2.62 5.87-5.84 5.87-3.22 0-5.84-2.63-5.84-5.87s2.62-5.87 5.84-5.87zM1778.44 1426.52c3.22 0 5.84 2.62 5.84 5.86s-2.62 5.86-5.84 5.86c-3.23 0-5.84-2.62-5.84-5.86s2.62-5.87 5.84-5.87z" fill="#fff"/><use xlink:href="#m" transform="matrix(1,0,0,1,1730,1481.5) translate(32.69205729166667 21.52777777777778)"/><path d="M100.5 1422.5h63a6 6 0 0 0 6-6v-12.38a6 6 0 0 1 6-6h47.12" stroke="#3a414a" fill="none"/><path d="M100.5 1422.97h-.5v-.94h.5z" stroke="#3a414a" stroke-width=".05" fill="#3a414a"/><path d="M237.38 1398.13l-14.26 4.63v-9.27z" stroke="#3a414a" fill="#3a414a"/><path d="M1087.5 1430h136.12" stroke="#3a414a" fill="none"/><path d="M1087.5 1430.47h-.5v-.94h.5z" stroke="#3a414a" stroke-width=".05" fill="#3a414a"/><path d="M1238.38 1430l-14.26 4.63v-9.27z" stroke="#3a414a" fill="#3a414a"/><path d="M1345.5 1430h133.22" stroke="#3a414a" fill="none"/><path d="M1342 1429.53h3.5v.94h-3.5z" stroke="#3a414a" stroke-width=".05" fill="#3a414a"/><path d="M1493.5 1430l-14.28 4.63v-9.27z" stroke="#3a414a" fill="#3a414a"/><path d="M1610.4 1430h133.22" stroke="#3a414a" fill="none"/><path d="M1610.4 1430.47h-.48l-.05-.94h.54z" stroke="#3a414a" stroke-width=".05" fill="#3a414a"/><path d="M1758.38 1430l-14.26 4.63v-9.27z" stroke="#3a414a" fill="#3a414a"/><path d="M723.5 1422.5h120.12" stroke="#3a414a" fill="none"/><path d="M720 1422.03h3.5v.94H720z" stroke="#3a414a" stroke-width=".05" fill="#3a414a"/><path d="M858.38 1422.5l-14.26 4.63v-9.27z" stroke="#3a414a" fill="#3a414a"/><path d="M440.5 1422.5h146.12" stroke="#3a414a" fill="none"/><path d="M437 1422.03h3.5v.94H437z" stroke="#3a414a" stroke-width=".05" fill="#3a414a"/><path d="M601.38 1422.5l-14.26 4.63v-9.27z" stroke="#3a414a" fill="#3a414a"/><path d="M180 1200h120v98H180z" fill-opacity="0"/><path d="M297.12 1210.88h-52.2c-.6 0-1.08-.1-1.56-.5l-15-10c-.48-.28-.96-.38-1.56-.38h-43.92c-1.56 0-2.88 1.18-2.88 2.74v92.52c0 1.56 1.32 2.74 2.88 2.74h114.24c1.56 0 2.88-1.18 2.88-2.74v-81.54c0-1.57-1.32-2.84-2.88-2.84z" fill="#005ba1"/><path d="M192.06 1205.37h25c.74 0 1.12.38 1.12 1.13v3.18c0 .75-.38 1.13-1.1 1.13h-25.02c-.74 0-1.12-.37-1.12-1.12v-3.18c0-.75.38-1.13 1.12-1.13z" fill="#fff"/><path d="M191.72 1205.37h3.88c.52 0 .78.26.78.78v3.88c0 .52-.26.78-.78.78h-3.88c-.5 0-.78-.25-.78-.77v-3.88c0-.52.27-.78.78-.78z" fill="#1ac3f2"/><path d="M297.12 1210.68H240c-.84 0-1.44.26-1.92.87l-9.6 9.14c-.6.5-1.2.77-1.92.77h-43.68c-1.56 0-2.88 1.3-2.88 2.88v70.57c0 1.57 1.32 2.8 2.88 2.8h114.24c1.56 0 2.88-1.23 2.88-2.8v-81.28-.17c0-1.48-1.32-2.8-2.88-2.8z" fill="url(#n)"/><path d="M248.34 1225.73c-.17-.05-.37-.05-.57 0 0 0-.64 0-.9.5l-22.3 32.4c-.24.4-.24.78 0 1.12.2.44.57.67 1.03.72h13.23l-5.86 19.63-.07.1c-.16.46.07 1 .54 1.18.17.06.33.06.5 0 .44 0 .64 0 .94-.5l23-32.9v-.72c-.03-.62-.57-1.12-1.2-1.12h-14.13l5.72-19.3c.3-.33.34-.77.07-1.1z" fill="#fff"/><use xlink:href="#b" transform="matrix(1,0,0,1,150,1307) translate(3.8671875 21.52777777777778)"/><use xlink:href="#o" transform="matrix(1,0,0,1,150,1307) translate(71.8142361111111 21.52777777777778)"/><use xlink:href="#p" transform="matrix(1,0,0,1,150,1307) translate(126.43663194444443 21.52777777777778)"/><path d="M-300 1362.5h91v120h-91z" fill-opacity="0"/><path d="M-254.5 1395.2c-25.12 0-45.5-7.05-45.5-16.38v87.3c0 8.92 20.02 16.28 44.86 16.38h.64c25.12 0 45.5-7.05 45.5-16.38v-87.3c0 9.12-20.38 16.38-45.5 16.38z" fill="url(#q)"/><path d="M-209 1378.88c0 9.1-20.38 16.38-45.5 16.38s-45.5-7.08-45.5-16.38c0-9.3 20.38-16.38 45.5-16.38s45.5 7.08 45.5 16.38" fill="#e8e8e8"/><path d="M-219.56 1377.55c0 5.8-15.72 10.5-34.94 10.5s-34.94-4.7-34.94-10.5 15.72-10.4 34.94-10.4 34.94 4.68 34.94 10.4" fill="#50e6ff"/><path d="M-254.45 1380.2c-9.84-.26-18.23.96-27.62 4 9.4 3 17.78 4.17 27.62 3.83 9.88.28 18.28-.96 27.6-4.1-9.38-2.9-17.77-4.04-27.6-3.74z" fill="#198ab3"/><path d="M-226.8 1439.45v-24.02h-6.43v29.16h17.5v-5.15zm-50.67-11.8c-1.4-.54-2.48-1.2-3.65-2.2-.58-.63-.87-1.37-.8-2.26-.07-.86.3-1.63 1.02-2.12.95-.62 1.9-.88 3-.85 2.6-.1 4.95.56 7.06 2.04v-6.06c-2.33-.88-4.52-1.2-7.07-1.1-2.93-.2-5.4.63-7.74 2.36-2.04 1.56-3.06 3.77-3 6.32 0 3.6 2.27 6.4 7.08 8.54 1.68.7 3 1.44 4.45 2.55.65.56 1 1.33 1 2.26 0 .88-.35 1.66-1.08 2.18-1.02.6-2.04.86-3.2.78-3-.03-5.55-1-7.74-2.95v6.54c2.48 1.3 4.82 1.8 7.6 1.7 3.12.18 5.82-.56 8.37-2.33 1.82-1.7 2.62-3.96 2.33-6.43.07-1.88-.5-3.5-1.75-4.9-1.75-1.86-3.57-3.08-5.9-4.04zm37.17 11.25c1.68-2.85 2.4-5.66 2.33-8.9-.14-2.78-.87-5.1-2.33-7.5-1.16-2.3-2.7-4-4.95-5.3-2.26-1.3-4.52-1.84-7.07-1.84-2.85-.08-5.25.55-7.73 1.92-2.26 1.25-3.87 2.92-5.18 5.2-1.3 2.63-1.9 5.15-1.82 8.07 0 2.58.5 4.76 1.68 7.06 1.16 2.3 2.7 3.96 4.95 5.25 2.2 1.33 4.45 2 7.07 2.1l6.13 7.07h8.6l-8.75-7.76c3.06-.93 5.4-2.7 7.07-5.36zm-7.07-1.78c-1.38 1.67-3.28 2.52-5.4 2.48-2.18.08-4.08-.85-5.4-2.55-1.6-2.14-2.25-4.43-2.03-7.06-.22-2.63.44-4.96 2.04-7.07 1.4-1.74 3.28-2.62 5.54-2.62 2.2-.1 4.1.86 5.32 2.63 1.46 2.18 2.05 4.44 1.9 7.06.3 2.62-.36 4.98-1.97 7.13z" fill="url(#r)"/><use xlink:href="#s" transform="matrix(1,0,0,1,-330,1491.5) translate(28.315755208333343 21.52777777777778)"/><use xlink:href="#t" transform="matrix(1,0,0,1,-330,1491.5) translate(0.7875434027777857 53.79340277777778)"/><use xlink:href="#u" transform="matrix(1,0,0,1,-330,1491.5) translate(50.85264756944445 53.79340277777778)"/><path d="M-208.5 1422.5h172.12" stroke="#3a414a" fill="none"/><path d="M-212 1422.03h3.5v.94h-3.5z" stroke="#3a414a" stroke-width=".05" fill="#3a414a"/><path d="M-21.62 1422.5l-14.26 4.63v-9.27z" stroke="#3a414a" fill="#3a414a"/><path d="M320 1362.5h120v120H320z" fill-opacity="0"/><path d="M320 1382.54v79.92c0 11.04 26.88 20.04 60 20.04 33.12 0 60-9 60-20.04v-79.92c0-11.04-26.88-20.04-60-20.04-33.12 0-60 9-60 20.04zm113.28 9.12c-9.96 6.48-30.12 10.8-53.28 10.8s-43.32-4.32-53.28-10.8v17.64s0 .24.24.36c.24.48.84 1.2 1.92 2.04 2.16 1.8 5.76 3.6 10.8 5.28 9.96 3.36 24.24 5.52 40.32 5.52 16.08 0 30.36-2.16 40.32-5.52 5.04-1.68 8.64-3.48 10.8-5.28 1.08-.84 1.68-1.56 1.92-2.04.24-.12.24-.36.24-.36v-17.64zm0 44.16v-17.52c-9.96 6.48-30.12 10.92-53.28 10.92s-43.32-4.44-53.28-10.92v17.64c0 .12 0 .24.24.48.24.36.84 1.08 1.92 1.92 2.16 1.8 5.76 3.6 10.8 5.28 9.96 3.36 24.24 5.52 40.32 5.52 16.08 0 30.36-2.16 40.32-5.52 5.04-1.68 8.64-3.48 10.8-5.28 1.08-.84 1.68-1.56 1.92-1.92.24-.24.24-.36.24-.48v-.12zm-106.56 9.24c9.96 6.36 30.12 10.8 53.28 10.8s43.32-4.44 53.28-10.8v17.52c0 .12 0 .24-.24.48-.24.48-.84 1.08-1.92 2.04-2.16 1.68-5.76 3.48-10.8 5.16-9.96 3.36-24.24 5.52-40.32 5.52-16.08 0-30.36-2.16-40.32-5.52-5.04-1.68-8.64-3.48-10.8-5.16-1.08-.96-1.68-1.56-1.92-2.04-.24-.24-.24-.36-.24-.48v-17.52zm106.56-62.52v.12s0 .12-.24.36c-.24.48-.84 1.2-1.92 2.04-2.16 1.68-5.76 3.6-10.8 5.28-9.96 3.36-24.24 5.52-40.32 5.52-16.08 0-30.36-2.16-40.32-5.52-5.04-1.68-8.64-3.6-10.8-5.28-1.08-.84-1.68-1.56-1.92-2.04-.24-.24-.24-.36-.24-.36v-.12-.12c0-.12 0-.24.24-.48.24-.48.84-1.08 1.92-2.04 2.16-1.68 5.76-3.48 10.8-5.16 9.96-3.36 24.24-5.52 40.32-5.52 16.08 0 30.36 2.16 40.32 5.52 5.04 1.68 8.64 3.48 10.8 5.16 1.08.96 1.68 1.56 1.92 2.04.24.24.24.36.24.48v.12z" fill="#e28e18" fill-rule="evenodd"/><use xlink:href="#v" transform="matrix(1,0,0,1,290,1491.5) translate(53.05338541666667 21.52777777777778)"/><path d="M603 1362.5h120v120H603z" fill-opacity="0"/><path d="M603 1382.54v79.92c0 11.04 26.88 20.04 60 20.04 33.12 0 60-9 60-20.04v-79.92c0-11.04-26.88-20.04-60-20.04-33.12 0-60 9-60 20.04zm113.28 9.12c-9.96 6.48-30.12 10.8-53.28 10.8s-43.32-4.32-53.28-10.8v17.64s0 .24.24.36c.24.48.84 1.2 1.92 2.04 2.16 1.8 5.76 3.6 10.8 5.28 9.96 3.36 24.24 5.52 40.32 5.52 16.08 0 30.36-2.16 40.32-5.52 5.04-1.68 8.64-3.48 10.8-5.28 1.08-.84 1.68-1.56 1.92-2.04.24-.12.24-.36.24-.36v-17.64zm0 44.16v-17.52c-9.96 6.48-30.12 10.92-53.28 10.92s-43.32-4.44-53.28-10.92v17.64c0 .12 0 .24.24.48.24.36.84 1.08 1.92 1.92 2.16 1.8 5.76 3.6 10.8 5.28 9.96 3.36 24.24 5.52 40.32 5.52 16.08 0 30.36-2.16 40.32-5.52 5.04-1.68 8.64-3.48 10.8-5.28 1.08-.84 1.68-1.56 1.92-1.92.24-.24.24-.36.24-.48v-.12zm-106.56 9.24c9.96 6.36 30.12 10.8 53.28 10.8s43.32-4.44 53.28-10.8v17.52c0 .12 0 .24-.24.48-.24.48-.84 1.08-1.92 2.04-2.16 1.68-5.76 3.48-10.8 5.16-9.96 3.36-24.24 5.52-40.32 5.52-16.08 0-30.36-2.16-40.32-5.52-5.04-1.68-8.64-3.48-10.8-5.16-1.08-.96-1.68-1.56-1.92-2.04-.24-.24-.24-.36-.24-.48v-17.52zm106.56-62.52v.12s0 .12-.24.36c-.24.48-.84 1.2-1.92 2.04-2.16 1.68-5.76 3.6-10.8 5.28-9.96 3.36-24.24 5.52-40.32 5.52-16.08 0-30.36-2.16-40.32-5.52-5.04-1.68-8.64-3.6-10.8-5.28-1.08-.84-1.68-1.56-1.92-2.04-.24-.24-.24-.36-.24-.36v-.12-.12c0-.12 0-.24.24-.48.24-.48.84-1.08 1.92-2.04 2.16-1.68 5.76-3.48 10.8-5.16 9.96-3.36 24.24-5.52 40.32-5.52 16.08 0 30.36 2.16 40.32 5.52 5.04 1.68 8.64 3.48 10.8 5.16 1.08.96 1.68 1.56 1.92 2.04.24.24.24.36.24.48v.12z" fill="#ced4db" fill-rule="evenodd"/><use xlink:href="#w" transform="matrix(1,0,0,1,573,1491.5) translate(60.746527777777786 21.52777777777778)"/><path d="M860 1362.5h120v120H860z" fill-opacity="0"/><path d="M860 1382.54v79.92c0 11.04 26.88 20.04 60 20.04 33.12 0 60-9 60-20.04v-79.92c0-11.04-26.88-20.04-60-20.04-33.12 0-60 9-60 20.04zm113.28 9.12c-9.96 6.48-30.12 10.8-53.28 10.8s-43.32-4.32-53.28-10.8v17.64s0 .24.24.36c.24.48.84 1.2 1.92 2.04 2.16 1.8 5.76 3.6 10.8 5.28 9.96 3.36 24.24 5.52 40.32 5.52 16.08 0 30.36-2.16 40.32-5.52 5.04-1.68 8.64-3.48 10.8-5.28 1.08-.84 1.68-1.56 1.92-2.04.24-.12.24-.36.24-.36v-17.64zm0 44.16v-17.52c-9.96 6.48-30.12 10.92-53.28 10.92s-43.32-4.44-53.28-10.92v17.64c0 .12 0 .24.24.48.24.36.84 1.08 1.92 1.92 2.16 1.8 5.76 3.6 10.8 5.28 9.96 3.36 24.24 5.52 40.32 5.52 16.08 0 30.36-2.16 40.32-5.52 5.04-1.68 8.64-3.48 10.8-5.28 1.08-.84 1.68-1.56 1.92-1.92.24-.24.24-.36.24-.48v-.12zm-106.56 9.24c9.96 6.36 30.12 10.8 53.28 10.8s43.32-4.44 53.28-10.8v17.52c0 .12 0 .24-.24.48-.24.48-.84 1.08-1.92 2.04-2.16 1.68-5.76 3.48-10.8 5.16-9.96 3.36-24.24 5.52-40.32 5.52-16.08 0-30.36-2.16-40.32-5.52-5.04-1.68-8.64-3.48-10.8-5.16-1.08-.96-1.68-1.56-1.92-2.04-.24-.24-.24-.36-.24-.48v-17.52zm106.56-62.52v.12s0 .12-.24.36c-.24.48-.84 1.2-1.92 2.04-2.16 1.68-5.76 3.6-10.8 5.28-9.96 3.36-24.24 5.52-40.32 5.52-16.08 0-30.36-2.16-40.32-5.52-5.04-1.68-8.64-3.6-10.8-5.28-1.08-.84-1.68-1.56-1.92-2.04-.24-.24-.24-.36-.24-.36v-.12-.12c0-.12 0-.24.24-.48.24-.48.84-1.08 1.92-2.04 2.16-1.68 5.76-3.48 10.8-5.16 9.96-3.36 24.24-5.52 40.32-5.52 16.08 0 30.36 2.16 40.32 5.52 5.04 1.68 8.64 3.48 10.8 5.16 1.08.96 1.68 1.56 1.92 2.04.24.24.24.36.24.48v.12z" fill="#e2ca18" fill-rule="evenodd"/><use xlink:href="#x" transform="matrix(1,0,0,1,830,1491.5) translate(65.55338541666667 21.52777777777778)"/><path d="M243 886a6 6 0 0 1 6-6h365a6 6 0 0 1 6 6v214c-62.96-36.74-102.17-36.74-125.92-36.74-37.7 0-87.84 36.74-125.54 36.74-23.37 0-62.96 0-125.54-36.74z" stroke="#3a414a" stroke-width="2" fill="#fff"/><path d="M500 949h60v60h-60z" fill-opacity="0"/><path d="M530 949c-16.56 0-30 13.44-30 30 0 16.56 13.44 30 30 30 16.56 0 30-13.44 30-30 0-16.56-13.44-30-30-30zm0 55.92c-14.28 0-25.92-11.64-25.92-25.92 0-14.28 11.64-25.92 25.92-25.92 14.28 0 25.92 11.64 25.92 25.92 0 14.28-11.64 25.92-25.92 25.92z" fill="url(#y)"/><path d="M555.93 979c0 14.32-11.6 25.93-25.92 25.93-14.3 0-25.9-11.6-25.9-25.92 0-14.3 11.6-25.9 25.9-25.9 14.32 0 25.93 11.6 25.93 25.9z" fill="#fff"/><path d="M545.63 973.1c2.52-2.53 2.52-6.63 0-9.17l-11.1-11.14c-2.52-2.5-6.6-2.5-9.12 0l-11.08 11.13c-2.53 2.54-2.53 6.64 0 9.18l9.23 9.4c.35.34.52.8.52 1.3v17.22c0 .56.2 1.13.63 1.52l4.25 4.22c.56.62 1.48.62 2.04 0l4.1-4.05 2.38-2.4c.32-.35.32-.85 0-1.2l-1.72-1.74c-.35-.34-.35-.95 0-1.3l1.72-1.74c.32-.33.32-.84 0-1.18l-1.72-1.74c-.35-.34-.35-.9 0-1.3l1.72-1.74c.32-.34.32-.85 0-1.18l-2.38-2.42v-.9zm-15.66-17.55c2 0 3.65 1.63 3.65 3.66 0 1.97-1.65 3.6-3.65 3.6s-3.65-1.63-3.65-3.6c0-2.02 1.65-3.65 3.65-3.65z" fill="url(#z)"/><path d="M527.13 1001.2c.15.12.32.18.5.18.46.02.83-.35.84-.8v-14.1c0-.3-.14-.54-.4-.7-.14-.1-.3-.14-.47-.12-.43.03-.75.4-.72.83v14.08c.02.23.1.42.25.6zM522.1 967.66h16.27c.66 0 1 .33 1 1v.17c0 .65-.34.98-1 .98H522.1c-.65 0-.98-.32-.98-.97v-.18c0-.66.33-1 1-1zM522.1 971.14h16.27c.66 0 1 .33 1 1v.16c0 .66-.34 1-1 1H522.1c-.65 0-.98-.34-.98-1v-.17c0-.66.33-1 1-1z" fill="#ff9300" fill-opacity=".75"/><use xlink:href="#A" transform="matrix(1,0,0,1,470,1018) translate(5.187717013888886 21.52777777777778)"/><use xlink:href="#B" transform="matrix(1,0,0,1,470,1018) translate(50.500217013888886 21.52777777777778)"/><path d="M320 949h66.06v60H320z" fill-opacity="0"/><path d="M363.84 986.1c0-6.62 5.34-11.98 11.93-11.98 4.3 0 8.04 2.27 10.15 5.7v-28.6c0-1.25-1-2.22-2.17-2.22h-61.57c-1.2 0-2.18.97-2.18 2.22v41.82c0 1.25 1 2.22 2.18 2.22h45.88c-2.64-2.27-4.22-5.64-4.22-9.16z" fill="url(#C)"/><path d="M344.27 983.14c.94.04 1.75-.72 1.8-1.66v-.06-.2c-.73-5.64-3.9-10.2-10-10.2s-9.43 3.88-10.1 10.14c-.07 1 .63 1.87 1.6 1.98h16.7z" fill="#6df"/><path d="M336.12 972.4c-1.05-.02-2.1-.33-2.98-.9l2.98 7.86 3-7.8c-.9.55-1.94.84-3 .84z" fill="#f2f2f2"/><path d="M341.73 966.76c0 3.1-2.5 5.64-5.6 5.64-3.1 0-5.63-2.53-5.63-5.64 0-3.1 2.52-5.64 5.62-5.64s5.6 2.53 5.6 5.64zM351.45 961.12h22.57c1.83 0 2.72.9 2.72 2.73 0 1.8-.9 2.72-2.72 2.72h-22.57c-1.82 0-2.72-.9-2.72-2.72 0-1.82.9-2.73 2.72-2.73zM368.68 974.68h-17.23c-1.5 0-2.72 1.23-2.72 2.73s1.22 2.73 2.72 2.73h11.8c1.02-2.17 2.6-4.2 5.43-5.45z" fill="#6df"/><path d="M386.06 986.1c0-5.72-4.6-10.34-10.28-10.34-5.67 0-10.27 4.62-10.27 10.34 0 3.5 1.74 6.55 4.37 8.44l-.68 13.23c-.03.63.44 1.16 1.08 1.2.3 0 .64-.14.86-.34l4.46-2.85 4.44 2.9c.43.42 1.15.42 1.6 0 .22-.2.35-.54.35-.88l-.53-13.1c2.76-1.86 4.58-5 4.58-8.6z" fill="url(#D)"/><path d="M373.77 991c-.33 0-.64-.13-.87-.36l-3.56-3.57c-.46-.5-.43-1.28.06-1.73.47-.44 1.2-.44 1.66 0l2.7 2.7 6.6-6.6c.5-.48 1.28-.44 1.74.06.43.46.43 1.2 0 1.66l-7.47 7.48c-.23.23-.55.36-.87.36z" fill="#fff"/><use xlink:href="#E" transform="matrix(1,0,0,1,290.00000000000006,1018) translate(22.072048611111114 21.52777777777778)"/><use xlink:href="#F" transform="matrix(1,0,0,1,290.00000000000006,1018) translate(82.92274305555556 21.52777777777778)"/><path d="M200 886a6 6 0 0 1 6-6h348a6 6 0 0 1 6 6v48a6 6 0 0 1-6 6H206a6 6 0 0 1-6-6z" fill="none"/><use xlink:href="#G" transform="matrix(1,0,0,1,200,880) translate(59.13411458333334 38.083767361111114)"/><use xlink:href="#H" transform="matrix(1,0,0,1,200,880) translate(152.72135416666666 38.083767361111114)"/><use xlink:href="#I" transform="matrix(1,0,0,1,200,880) translate(173.28342013888889 38.083767361111114)"/><path d="M1610 1432.5c0 31.74-25.76 57.5-57.5 57.5s-57.5-25.76-57.5-57.5 25.76-57.5 57.5-57.5 57.5 25.76 57.5 57.5z" stroke="#000" stroke-opacity="0" stroke-width="2.34" fill="#032d60"/><path d="M1566.07 1434.54h-11.3v12.1h-4.52v-12.1h-11.1v-4.3h11.1v-12.35h4.52v12.33h11.3v4.3zM1543.4 1450.16h-10.25v-11.1h-3.7v11.1h-10.07v3.3h10.07v10.9h3.7v-10.9h10.26v-3.3zM1585.73 1410.95h-10.07v-11.1h-3.9v11.1h-10.06v3.3h10.07v10.9h3.9v-10.9h10.06v-3.3zM1561.13 1462.3h-6.98v-7.6h-3.07v7.6h-6.97v2.87h6.98v7.8h3.07v-7.8h6.97v-2.87zM1543.4 1410.95h-10.25v-11.1h-3.7v11.1h-10.07v3.3h10.07v10.9h3.7v-10.9h10.26v-3.3zM1593.33 1430.9h-6.75v-7.6h-3.3v7.6h-6.74v2.88h6.75v7.8h3.28v-7.8h6.75v-2.87zM1585.73 1450.16h-10.07v-11.1h-3.9v11.1h-10.06v3.3h10.07v10.9h3.9v-10.9h10.06v-3.3zM1560.55 1399.6h-6.8v-7.58h-2.26v7.6h-6.82v2.25h6.8v7.4h2.26v-7.4h6.8v-2.26zM1527.55 1431.06h-6.8v-7.18h-2.27v7.18h-6.8v2.45h6.8v7.4h2.26v-7.4l6.8-.2v-2.24z" stroke="#000" stroke-opacity="0" stroke-width="2.34" fill="#fff"/><path d="M1907.5 1396.25c0 18.63-15.12 33.75-33.75 33.75-18.63 0-33.75-15.12-33.75-33.75 0-18.63 15.12-33.75 33.75-33.75 18.63 0 33.75 15.12 33.75 33.75z" stroke="#000" stroke-opacity="0" stroke-width="2.34" fill="#032d60"/><path d="M1881.7 1397.45h-6.62v7.1h-2.65v-7.1h-6.5v-2.53h6.5v-7.24h2.65v7.24h6.63v2.53zM1868.42 1406.62h-6.03v-6.52h-2.18v6.52h-5.9v1.93h5.9v6.4h2.17v-6.4h6.02v-1.93zM1893.26 1383.6h-5.9v-6.52h-2.3v6.52h-5.9v1.93h5.9v6.4h2.3v-6.4h5.9v-1.93zM1878.8 1413.74h-4.08v-4.46h-1.8v4.46h-4.1v1.7h4.1v4.57h1.8v-4.57h4.1v-1.7zM1868.42 1383.6h-6.03v-6.52h-2.18v6.52h-5.9v1.93h5.9v6.4h2.17v-6.4h6.02v-1.93zM1897.7 1395.32h-3.95v-4.47h-1.93v4.47h-3.96v1.68h3.96v4.58h1.93V1397h3.96v-1.68zM1893.26 1406.62h-5.9v-6.52h-2.3v6.52h-5.9v1.93h5.9v6.4h2.3v-6.4h5.9v-1.93zM1878.47 1376.94h-4v-4.45h-1.3v4.44h-4v1.33h4v4.35h1.3v-4.35h4v-1.33zM1859.1 1395.4h-4v-4.2h-1.32v4.2h-4v1.44h4v4.34h1.33v-4.34l4-.12v-1.32z" stroke="#000" stroke-opacity="0" stroke-width="2.34" fill="#fff"/><path d="M1472.5 1488.5a6 6 0 0 1 6-6h148a6 6 0 0 1 6 6v48a6 6 0 0 1-6 6h-148a6 6 0 0 1-6-6z" fill="none"/><g><use xlink:href="#J" transform="matrix(1,0,0,1,1472.5,1482.5) translate(38.51236979166667 38.083767361111114)"/></g><defs><linearGradient gradientUnits="userSpaceOnUse" id="a" x1="-20" y1="1427.94" x2="40" y2="1427.94"><stop offset="0%" stop-color="#005ba1"/><stop offset="7%" stop-color="#0060a9"/><stop offset="36%" stop-color="#0071c8"/><stop offset="52%" stop-color="#0078d4"/><stop offset="64%" stop-color="#0074cd"/><stop offset="81%" stop-color="#006abb"/><stop offset="99%" stop-color="#005ba1"/></linearGradient><path d="M52 0l541-1490h220L1361 0h-200l-149-416H398L254 0H52zm404-582h497c-103-290-145-390-251-756-108 377-145 460-246 756" id="K"/><path d="M126 0v-134l627-806v-11H146v-167h839v143L376-178v11h629V0H126" id="L"/><path d="M537 14c-226 0-379-139-379-422v-710h180v695c0 172 97 275 253 275 160 0 281-109 281-300v-670h181V0H879v-209C806-46 684 14 537 14" id="M"/><path d="M158 0v-1118h174v172h12c41-113 157-188 290-188 26 0 70 2 91 3v181c-11-2-60-10-108-10-161 0-279 109-279 260V0H158" id="N"/><path d="M628 24c-324 0-524-230-524-574 0-343 198-582 503-582 237 0 487 146 487 559v75H286c9 234 145 362 343 362 132 0 231-58 273-172l174 48C1024-91 857 24 628 24zM287-650h624c-17-190-120-322-304-322-192 0-309 151-320 322" id="O"/><g id="b"><use transform="matrix(0.010850694444444444,0,0,0.010850694444444444,0,0)" xlink:href="#K"/><use transform="matrix(0.010850694444444444,0,0,0.010850694444444444,15.33203125,0)" xlink:href="#L"/><use transform="matrix(0.010850694444444444,0,0,0.010850694444444444,27.604166666666664,0)" xlink:href="#M"/><use transform="matrix(0.010850694444444444,0,0,0.010850694444444444,40.744357638888886,0)" xlink:href="#N"/><use transform="matrix(0.010850694444444444,0,0,0.010850694444444444,48.741319444444436,0)" xlink:href="#O"/></g><path d="M645 0H180v-1490h484c435 0 692 280 692 742 0 466-257 748-711 748zM370-168h263c363 0 539-218 539-580 0-358-176-574-521-574H370v1154" id="P"/><path d="M471 26C259 26 90-98 90-318c0-256 228-303 435-329 202-27 287-16 287-108 0-139-79-219-234-219-161 0-248 86-283 164l-173-57c86-203 278-265 451-265 150 0 419 46 419 395V0H815v-152h-12C765-73 660 26 471 26zm31-159c199 0 310-134 310-271v-155c-30 35-226 55-295 64-131 17-246 59-246 186 0 116 97 176 231 176" id="Q"/><path d="M598-1118v154H368v674c0 100 37 144 132 144 23 0 62-6 92-12L629-6c-37 13-88 20-134 20-193 0-307-107-307-290v-688H20v-154h168v-266h180v266h230" id="R"/><g id="c"><use transform="matrix(0.010850694444444444,0,0,0.010850694444444444,0,0)" xlink:href="#P"/><use transform="matrix(0.010850694444444444,0,0,0.010850694444444444,16.03732638888889,0)" xlink:href="#Q"/><use transform="matrix(0.010850694444444444,0,0,0.010850694444444444,28.515625,0)" xlink:href="#R"/><use transform="matrix(0.010850694444444444,0,0,0.010850694444444444,35.89409722222222,0)" xlink:href="#Q"/></g><path d="M180 0v-1490h901v168H370v510h643v168H370V0H180" id="S"/><path d="M613 24c-304 0-509-231-509-576 0-350 205-580 509-580 216 0 392 114 453 309l-173 49c-33-115-133-197-280-197-223 0-326 196-326 419 0 220 103 415 326 415 150 0 252-85 285-206l172 49C1010-95 832 24 613 24" id="T"/><path d="M613 24c-304 0-509-231-509-576 0-350 205-580 509-580 305 0 511 230 511 580 0 345-206 576-511 576zm0-161c226 0 329-195 329-415 0-222-103-419-329-419-223 0-326 196-326 419 0 220 103 415 326 415" id="U"/><path d="M140 405l46-156c120 36 205 19 263-150l32-93L54-1118h197c107 313 237 620 324 950 87-331 219-637 326-950h196L606 167c-68 178-176 259-334 259-64 0-113-12-132-21" id="V"/><g id="d"><use transform="matrix(0.010850694444444444,0,0,0.010850694444444444,0,0)" xlink:href="#S"/><use transform="matrix(0.010850694444444444,0,0,0.010850694444444444,12.57595486111111,0)" xlink:href="#Q"/><use transform="matrix(0.010850694444444444,0,0,0.010850694444444444,25.05425347222222,0)" xlink:href="#T"/><use transform="matrix(0.010850694444444444,0,0,0.010850694444444444,37.74956597222222,0)" xlink:href="#R"/><use transform="matrix(0.010850694444444444,0,0,0.010850694444444444,44.80251736111111,0)" xlink:href="#U"/><use transform="matrix(0.010850694444444444,0,0,0.010850694444444444,58.1271701388889,0)" xlink:href="#N"/><use transform="matrix(0.010850694444444444,0,0,0.010850694444444444,66.84027777777779,0)" xlink:href="#V"/></g><linearGradient gradientUnits="userSpaceOnUse" id="e" x1="1292.5" y1="1405.88" x2="1292.5" y2="1370"><stop offset="19.9%" stop-color="#005ba1"/><stop offset="100%" stop-color="#0078d4"/></linearGradient><linearGradient gradientUnits="userSpaceOnUse" id="f" x1="1292.45" y1="1455.02" x2="1292.45" y2="1405.47"><stop offset="0%" stop-color="#198ab3"/><stop offset="17.2%" stop-color="#32bedd"/><stop offset="50%" stop-color="#50e6ff"/><stop offset="50%" stop-color="#4fe4fd"/><stop offset="50%" stop-color="#4bddf8"/><stop offset="50%" stop-color="#44d2ee"/><stop offset="50%" stop-color="#3ac1e0"/><stop offset="50%" stop-color="#2dabce"/><stop offset="50%" stop-color="#1d90b8"/><stop offset="50%" stop-color="#198ab3"/><stop offset="66.2%" stop-color="#32bedd"/><stop offset="97.5%" stop-color="#50e6ff"/></linearGradient><linearGradient gradientUnits="userSpaceOnUse" id="g" x1="1333.68" y1="1479.62" x2="1333.68" y2="1430.07"><stop offset="0%" stop-color="#198ab3"/><stop offset="17.2%" stop-color="#32bedd"/><stop offset="50%" stop-color="#50e6ff"/><stop offset="50%" stop-color="#4fe4fd"/><stop offset="50%" stop-color="#4bddf8"/><stop offset="50%" stop-color="#44d2ee"/><stop offset="50%" stop-color="#3ac1e0"/><stop offset="50%" stop-color="#2dabce"/><stop offset="50%" stop-color="#1d90b8"/><stop offset="50%" stop-color="#198ab3"/><stop offset="66.2%" stop-color="#32bedd"/><stop offset="97.5%" stop-color="#50e6ff"/></linearGradient><path d="M657 26c-323 0-524-166-541-416h195c15 169 171 246 346 246 202 0 356-106 356-265 5-203-294-238-475-293-239-73-380-191-380-389 0-252 224-419 512-419 294 0 499 171 508 396H992c-17-145-151-228-328-228-193 0-321 102-321 242 0 156 175 211 284 241l149 41c160 44 422 134 422 412 0 244-197 432-541 432" id="W"/><path d="M338-670V0H158v-1118h173l1 207c72-158 192-221 342-221 226 0 378 139 378 422V0H872v-695c0-172-96-275-252-275-161 0-282 109-282 300" id="X"/><path d="M158 418v-1536h174v179h20c37-59 106-193 324-193 279 0 474 222 474 576 0 356-194 580-473 580-213 0-288-135-325-197h-14v591H158zm492-555c209 0 317-186 317-421 0-232-105-413-317-413-206 0-314 166-314 413 0 249 111 421 314 421" id="Y"/><path d="M538 24C308 24 148-78 108-271l171-41c32 123 123 178 257 178 156 0 256-77 256-169 0-77-54-128-164-154l-186-44c-203-48-300-148-300-305 0-192 176-326 414-326 230 0 351 112 402 269l-163 42c-31-80-94-158-238-158-133 0-233 69-233 162 0 83 57 129 188 160l169 40c203 48 298 149 298 302 0 196-179 339-441 339" id="Z"/><g id="h"><use transform="matrix(0.010850694444444444,0,0,0.010850694444444444,0,0)" xlink:href="#W"/><use transform="matrix(0.010850694444444444,0,0,0.010850694444444444,14.2578125,0)" xlink:href="#V"/><use transform="matrix(0.010850694444444444,0,0,0.010850694444444444,26.74696180555556,0)" xlink:href="#X"/><use transform="matrix(0.010850694444444444,0,0,0.010850694444444444,39.876302083333336,0)" xlink:href="#Q"/><use transform="matrix(0.010850694444444444,0,0,0.010850694444444444,52.35460069444444,0)" xlink:href="#Y"/><use transform="matrix(0.010850694444444444,0,0,0.010850694444444444,65.96137152777777,0)" xlink:href="#Z"/><use transform="matrix(0.010850694444444444,0,0,0.010850694444444444,77.69097222222221,0)" xlink:href="#O"/></g><path d="M338-1490V0H158v-1490h180" id="aa"/><path d="M158 0v-1118h180V0H158zm91-1301c-68 0-125-53-125-119s57-119 125-119c69 0 126 53 126 119s-57 119-126 119" id="ab"/><g id="i"><use transform="matrix(0.010850694444444444,0,0,0.010850694444444444,0,0)" xlink:href="#K"/><use transform="matrix(0.010850694444444444,0,0,0.010850694444444444,15.33203125,0)" xlink:href="#X"/><use transform="matrix(0.010850694444444444,0,0,0.010850694444444444,28.461371527777775,0)" xlink:href="#Q"/><use transform="matrix(0.010850694444444444,0,0,0.010850694444444444,40.939670138888886,0)" xlink:href="#aa"/><use transform="matrix(0.010850694444444444,0,0,0.010850694444444444,46.43012152777778,0)" xlink:href="#V"/><use transform="matrix(0.010850694444444444,0,0,0.010850694444444444,59.244791666666664,0)" xlink:href="#R"/><use transform="matrix(0.010850694444444444,0,0,0.010850694444444444,66.51475694444444,0)" xlink:href="#ab"/><use transform="matrix(0.010850694444444444,0,0,0.010850694444444444,71.89670138888889,0)" xlink:href="#T"/><use transform="matrix(0.010850694444444444,0,0,0.010850694444444444,84.59201388888889,0)" xlink:href="#Z"/></g><g id="j"><use transform="matrix(0.010850694444444444,0,0,0.010850694444444444,0,0)" xlink:href="#K"/><use transform="matrix(0.010850694444444444,0,0,0.010850694444444444,15.33203125,0)" xlink:href="#L"/><use transform="matrix(0.010850694444444444,0,0,0.010850694444444444,27.604166666666664,0)" xlink:href="#M"/><use transform="matrix(0.010850694444444444,0,0,0.010850694444444444,40.744357638888886,0)" xlink:href="#N"/><use transform="matrix(0.010850694444444444,0,0,0.010850694444444444,48.741319444444436,0)" xlink:href="#O"/></g><path d="M677 24c-213 0-288-135-325-197h-20V0H158v-1490h180v551h14c37-59 106-193 324-193 279 0 474 222 474 576 0 356-194 580-473 580zm-27-161c209 0 317-186 317-421 0-232-105-413-317-413-206 0-314 166-314 413 0 249 111 421 314 421" id="ac"/><path d="M158 0v-1490h180v865h22l478-493h223L593-638 1096 0H865L456-523 338-412V0H158" id="ad"/><g id="k"><use transform="matrix(0.010850694444444444,0,0,0.010850694444444444,0,0)" xlink:href="#P"/><use transform="matrix(0.010850694444444444,0,0,0.010850694444444444,16.03732638888889,0)" xlink:href="#Q"/><use transform="matrix(0.010850694444444444,0,0,0.010850694444444444,28.515625,0)" xlink:href="#R"/><use transform="matrix(0.010850694444444444,0,0,0.010850694444444444,35.89409722222222,0)" xlink:href="#Q"/><use transform="matrix(0.010850694444444444,0,0,0.010850694444444444,48.37239583333333,0)" xlink:href="#ac"/><use transform="matrix(0.010850694444444444,0,0,0.010850694444444444,61.97916666666666,0)" xlink:href="#N"/><use transform="matrix(0.010850694444444444,0,0,0.010850694444444444,70.69227430555554,0)" xlink:href="#ab"/><use transform="matrix(0.010850694444444444,0,0,0.010850694444444444,76.07421874999999,0)" xlink:href="#T"/><use transform="matrix(0.010850694444444444,0,0,0.010850694444444444,88.76953124999999,0)" xlink:href="#ad"/><use transform="matrix(0.010850694444444444,0,0,0.010850694444444444,100.96571180555556,0)" xlink:href="#Z"/></g><linearGradient gradientUnits="userSpaceOnUse" id="l" x1="1820" y1="1374.77" x2="1820" y2="1486.03"><stop offset="0%" stop-color="#6cc6b9"/><stop offset="46%" stop-color="#6ac4b7"/><stop offset="64%" stop-color="#62bdb0"/><stop offset="77%" stop-color="#56b1a4"/><stop offset="100%" stop-color="#258277"/></linearGradient><path d="M338-670V0H158v-1490h180v566c73-149 190-208 336-208 226 0 379 139 379 422V0H872v-695c0-172-96-275-252-275-161 0-282 109-282 300" id="ae"/><path d="M577 24c-279 0-473-224-473-580 0-354 195-576 474-576 218 0 287 134 324 193h14v-551h180V0H922v-173h-20C865-111 790 24 577 24zm27-161c203 0 314-172 314-421 0-247-108-413-314-413-212 0-317 181-317 413 0 235 108 421 317 421" id="af"/><g id="m"><use transform="matrix(0.010850694444444444,0,0,0.010850694444444444,0,0)" xlink:href="#P"/><use transform="matrix(0.010850694444444444,0,0,0.010850694444444444,16.03732638888889,0)" xlink:href="#Q"/><use transform="matrix(0.010850694444444444,0,0,0.010850694444444444,28.515625,0)" xlink:href="#Z"/><use transform="matrix(0.010850694444444444,0,0,0.010850694444444444,40.24522569444444,0)" xlink:href="#ae"/><use transform="matrix(0.010850694444444444,0,0,0.010850694444444444,53.385416666666664,0)" xlink:href="#ac"/><use transform="matrix(0.010850694444444444,0,0,0.010850694444444444,66.9921875,0)" xlink:href="#U"/><use transform="matrix(0.010850694444444444,0,0,0.010850694444444444,80.53385416666666,0)" xlink:href="#Q"/><use transform="matrix(0.010850694444444444,0,0,0.010850694444444444,93.01215277777777,0)" xlink:href="#N"/><use transform="matrix(0.010850694444444444,0,0,0.010850694444444444,101.00911458333333,0)" xlink:href="#af"/></g><linearGradient gradientUnits="userSpaceOnUse" id="n" x1="241.69" y1="1192.18" x2="238.94" y2="1302.09"><stop offset="0%" stop-color="#32d4f5"/><stop offset="23%" stop-color="#31d0f1"/><stop offset="46%" stop-color="#2cc3e6"/><stop offset="70%" stop-color="#25afd4"/><stop offset="94%" stop-color="#1c92ba"/><stop offset="100%" stop-color="#198ab3"/></linearGradient><g id="o"><use transform="matrix(0.010850694444444444,0,0,0.010850694444444444,0,0)" xlink:href="#P"/><use transform="matrix(0.010850694444444444,0,0,0.010850694444444444,16.03732638888889,0)" xlink:href="#Q"/><use transform="matrix(0.010850694444444444,0,0,0.010850694444444444,28.515625,0)" xlink:href="#R"/><use transform="matrix(0.010850694444444444,0,0,0.010850694444444444,35.89409722222222,0)" xlink:href="#Q"/></g><path d="M180 0v-1490h190v1322h690V0H180" id="ag"/><g id="p"><use transform="matrix(0.010850694444444444,0,0,0.010850694444444444,0,0)" xlink:href="#ag"/><use transform="matrix(0.010850694444444444,0,0,0.010850694444444444,12.565104166666666,0)" xlink:href="#Q"/><use transform="matrix(0.010850694444444444,0,0,0.010850694444444444,25.04340277777778,0)" xlink:href="#ad"/><use transform="matrix(0.010850694444444444,0,0,0.010850694444444444,36.74045138888889,0)" xlink:href="#O"/></g><linearGradient gradientUnits="userSpaceOnUse" id="q" x1="-300" y1="1430.66" x2="-209" y2="1430.66"><stop offset="0%" stop-color="#005ba1"/><stop offset="7%" stop-color="#0060a9"/><stop offset="36%" stop-color="#0071c8"/><stop offset="52%" stop-color="#0078d4"/><stop offset="64%" stop-color="#0074cd"/><stop offset="82%" stop-color="#006abb"/><stop offset="100%" stop-color="#005ba1"/></linearGradient><radialGradient gradientUnits="userSpaceOnUse" id="r" fx="-251.93" fy="1433.58" cx="-251.93" cy="1433.58" r="25.44"><stop offset="0%" stop-color="#f2f2f2"/><stop offset="58%" stop-color="#eee"/><stop offset="100%" stop-color="#e6e6e6"/></radialGradient><path d="M784 20c-382 0-662-292-662-764 0-473 280-766 662-766s660 293 660 766c0 472-278 764-660 764zm0-176c266 0 475-207 475-588 0-383-209-590-475-590-268 0-477 208-477 590 0 380 209 588 477 588" id="ah"/><path d="M798-719v166H144v-166h654" id="ai"/><path d="M158 0v-1118h175l1 205c55-151 181-225 313-225 147 0 245 90 285 228 53-141 190-228 352-228 194 0 352 125 352 384V0h-181v-749c0-161-105-225-225-225-151 0-243 103-243 244V0H807v-767c0-124-93-207-219-207-131 0-250 92-250 270V0H158" id="aj"/><g id="s"><use transform="matrix(0.010850694444444444,0,0,0.010850694444444444,0,0)" xlink:href="#ah"/><use transform="matrix(0.010850694444444444,0,0,0.010850694444444444,16.9921875,0)" xlink:href="#X"/><use transform="matrix(0.010850694444444444,0,0,0.010850694444444444,30.121527777777775,0)" xlink:href="#ai"/><use transform="matrix(0.010850694444444444,0,0,0.010850694444444444,40.34288194444444,0)" xlink:href="#Y"/><use transform="matrix(0.010850694444444444,0,0,0.010850694444444444,53.94965277777778,0)" xlink:href="#N"/><use transform="matrix(0.010850694444444444,0,0,0.010850694444444444,61.94661458333332,0)" xlink:href="#O"/><use transform="matrix(0.010850694444444444,0,0,0.010850694444444444,74.90234374999999,0)" xlink:href="#aj"/></g><path d="M784 20c-382 0-662-292-662-764 0-473 280-766 662-766s660 293 660 766c0 282-99 499-260 629l192 255h-198L1049-33C969 2 880 20 784 20zm-62-486h198l156 205c112-98 183-261 183-483 0-383-209-590-475-590-268 0-477 208-477 590 0 380 209 588 477 588 54 0 106-9 154-25" id="ak"/><g id="t"><use transform="matrix(0.010850694444444444,0,0,0.010850694444444444,0,0)" xlink:href="#W"/><use transform="matrix(0.010850694444444444,0,0,0.010850694444444444,14.2578125,0)" xlink:href="#ak"/><use transform="matrix(0.010850694444444444,0,0,0.010850694444444444,31.25,0)" xlink:href="#ag"/></g><g id="u"><use transform="matrix(0.010850694444444444,0,0,0.010850694444444444,0,0)" xlink:href="#P"/><use transform="matrix(0.010850694444444444,0,0,0.010850694444444444,16.03732638888889,0)" xlink:href="#Q"/><use transform="matrix(0.010850694444444444,0,0,0.010850694444444444,28.515625,0)" xlink:href="#R"/><use transform="matrix(0.010850694444444444,0,0,0.010850694444444444,35.89409722222222,0)" xlink:href="#Q"/><use transform="matrix(0.010850694444444444,0,0,0.010850694444444444,48.37239583333333,0)" xlink:href="#ac"/><use transform="matrix(0.010850694444444444,0,0,0.010850694444444444,62.19618055555554,0)" xlink:href="#Q"/><use transform="matrix(0.010850694444444444,0,0,0.010850694444444444,74.67447916666666,0)" xlink:href="#Z"/><use transform="matrix(0.010850694444444444,0,0,0.010850694444444444,86.4040798611111,0)" xlink:href="#O"/></g><path d="M180 0v-1490h528c311 0 458 177 458 395 0 191-114 278-244 313v14c139 9 302 137 302 371 0 225-148 397-499 397H180zm190-168h350c232 0 321-102 321-231 0-149-120-277-311-277H370v508zm0-668h328c160 0 286-101 286-255 0-129-87-231-280-231H370v486" id="al"/><g id="v"><use transform="matrix(0.010850694444444444,0,0,0.010850694444444444,0,0)" xlink:href="#al"/><use transform="matrix(0.010850694444444444,0,0,0.010850694444444444,14.539930555555555,0)" xlink:href="#N"/><use transform="matrix(0.010850694444444444,0,0,0.010850694444444444,22.53689236111111,0)" xlink:href="#U"/><use transform="matrix(0.010850694444444444,0,0,0.010850694444444444,35.861545138888886,0)" xlink:href="#X"/><use transform="matrix(0.010850694444444444,0,0,0.010850694444444444,48.990885416666664,0)" xlink:href="#L"/><use transform="matrix(0.010850694444444444,0,0,0.010850694444444444,60.937499999999986,0)" xlink:href="#O"/></g><path d="M481 0L54-1118h197c107 314 236 620 325 951 87-331 217-637 324-951h197L670 0H481" id="am"/><g id="w"><use transform="matrix(0.010850694444444444,0,0,0.010850694444444444,0,0)" xlink:href="#W"/><use transform="matrix(0.010850694444444444,0,0,0.010850694444444444,14.2578125,0)" xlink:href="#ab"/><use transform="matrix(0.010850694444444444,0,0,0.010850694444444444,19.639756944444443,0)" xlink:href="#aa"/><use transform="matrix(0.010850694444444444,0,0,0.010850694444444444,25.13020833333333,0)" xlink:href="#am"/><use transform="matrix(0.010850694444444444,0,0,0.010850694444444444,37.18532986111111,0)" xlink:href="#O"/><use transform="matrix(0.010850694444444444,0,0,0.010850694444444444,50.14105902777778,0)" xlink:href="#N"/></g><path d="M789 20c-398 0-667-293-667-764 0-473 273-766 655-766 315 0 558 198 612 487h-196c-61-191-204-311-415-311-262 0-471 207-471 590 0 380 208 588 482 588 249 0 420-165 425-427H828v-166h572v163c0 370-256 606-611 606" id="an"/><g id="x"><use transform="matrix(0.010850694444444444,0,0,0.010850694444444444,0,0)" xlink:href="#an"/><use transform="matrix(0.010850694444444444,0,0,0.010850694444444444,16.57986111111111,0)" xlink:href="#U"/><use transform="matrix(0.010850694444444444,0,0,0.010850694444444444,29.90451388888889,0)" xlink:href="#aa"/><use transform="matrix(0.010850694444444444,0,0,0.010850694444444444,35.28645833333333,0)" xlink:href="#af"/></g><radialGradient gradientUnits="userSpaceOnUse" id="y" fx="530" fy="979" cx="530" cy="979" r="30"><stop offset="18%" stop-color="#5ea0ef"/><stop offset="56%" stop-color="#5c9fee"/><stop offset="69%" stop-color="#559ced"/><stop offset="78%" stop-color="#4a97e9"/><stop offset="86%" stop-color="#3990e4"/><stop offset="93%" stop-color="#2387de"/><stop offset="99%" stop-color="#087bd6"/><stop offset="100%" stop-color="#0078d4"/></radialGradient><radialGradient gradientUnits="userSpaceOnUse" id="z" fx="526.1" fy="975.13" cx="526.1" cy="975.13" r="32.77"><stop offset="27%" stop-color="#ffd70f"/><stop offset="49%" stop-color="#ffcb12"/><stop offset="88%" stop-color="#feac19"/><stop offset="100%" stop-color="#fea11b"/></radialGradient><path d="M180 0v-1490h190c0 262 1 526-3 784 217-279 467-523 702-784h249L716-845 1319 0h-225L585-716 370-489V0H180" id="ao"/><g id="A"><use transform="matrix(0.010850694444444444,0,0,0.010850694444444444,0,0)" xlink:href="#ao"/><use transform="matrix(0.010850694444444444,0,0,0.010850694444444444,14.051649305555555,0)" xlink:href="#O"/><use transform="matrix(0.010850694444444444,0,0,0.010850694444444444,26.573350694444443,0)" xlink:href="#V"/></g><path d="M600 0L52-1490h200c166 485 304 806 458 1336 156-533 285-846 449-1336h202L819 0H600" id="ap"/><g id="B"><use transform="matrix(0.010850694444444444,0,0,0.010850694444444444,0,0)" xlink:href="#ap"/><use transform="matrix(0.010850694444444444,0,0,0.010850694444444444,14.20355902777778,0)" xlink:href="#Q"/><use transform="matrix(0.010850694444444444,0,0,0.010850694444444444,26.68185763888889,0)" xlink:href="#M"/><use transform="matrix(0.010850694444444444,0,0,0.010850694444444444,39.822048611111114,0)" xlink:href="#aa"/><use transform="matrix(0.010850694444444444,0,0,0.010850694444444444,45.5295138888889,0)" xlink:href="#R"/><use transform="matrix(0.010850694444444444,0,0,0.010850694444444444,52.582465277777786,0)" xlink:href="#Z"/></g><linearGradient gradientUnits="userSpaceOnUse" id="C" x1="352.96" y1="995.26" x2="352.96" y2="949"><stop offset="8.9%" stop-color="#225086"/><stop offset="45.8%" stop-color="#0055c5"/></linearGradient><linearGradient gradientUnits="userSpaceOnUse" id="D" x1="375.78" y1="1009" x2="375.78" y2="975.76"><stop offset="0%" stop-color="#0294e4"/><stop offset="19.2%" stop-color="#23aced"/><stop offset="39.8%" stop-color="#40c1f4"/><stop offset="60.3%" stop-color="#55d0fa"/><stop offset="80.5%" stop-color="#61d9fd"/><stop offset="100%" stop-color="#6df"/></linearGradient><path d="M180 0v-1490h908v168H370v486h669v168H370v500h727V0H180" id="aq"/><g id="E"><use transform="matrix(0.010850694444444444,0,0,0.010850694444444444,0,0)" xlink:href="#aq"/><use transform="matrix(0.010850694444444444,0,0,0.010850694444444444,13.35720486111111,0)" xlink:href="#X"/><use transform="matrix(0.010850694444444444,0,0,0.010850694444444444,26.48654513888889,0)" xlink:href="#R"/><use transform="matrix(0.010850694444444444,0,0,0.010850694444444444,33.756510416666664,0)" xlink:href="#N"/><use transform="matrix(0.010850694444444444,0,0,0.010850694444444444,42.12239583333333,0)" xlink:href="#Q"/></g><path d="M370-1490V0H180v-1490h190" id="ar"/><g id="F"><use transform="matrix(0.010850694444444444,0,0,0.010850694444444444,0,0)" xlink:href="#ar"/><use transform="matrix(0.010850694444444444,0,0,0.010850694444444444,5.967881944444445,0)" xlink:href="#P"/></g><g id="G"><use transform="matrix(0.010850694444444444,0,0,0.010850694444444444,0,0)" xlink:href="#W"/><use transform="matrix(0.010850694444444444,0,0,0.010850694444444444,14.2578125,0)" xlink:href="#O"/><use transform="matrix(0.010850694444444444,0,0,0.010850694444444444,27.213541666666664,0)" xlink:href="#T"/><use transform="matrix(0.010850694444444444,0,0,0.010850694444444444,39.908854166666664,0)" xlink:href="#M"/><use transform="matrix(0.010850694444444444,0,0,0.010850694444444444,53.049045138888886,0)" xlink:href="#N"/><use transform="matrix(0.010850694444444444,0,0,0.010850694444444444,61.76215277777778,0)" xlink:href="#ab"/><use transform="matrix(0.010850694444444444,0,0,0.010850694444444444,67.14409722222221,0)" xlink:href="#R"/><use transform="matrix(0.010850694444444444,0,0,0.010850694444444444,74.84809027777776,0)" xlink:href="#V"/></g><path d="M580 20c-295 0-476-179-476-409 0-189 123-290 294-416-104-125-173-226-173-362 0-197 144-337 365-337 224 0 362 144 362 321 0 185-174 312-306 405l319 387c38-75 61-165 61-267h173c0 208-62 332-120 406L1287 0h-217L967-124C868-27 716 20 580 20zm279-273L507-675l-51 38c-123 91-167 162-167 254 0 147 113 246 278 246 107 0 210-41 292-116zM538-908l97-72c54-40 136-101 136-206 0-95-68-163-176-163-113 0-189 74-189 181 0 90 53 164 132 260" id="as"/><use transform="matrix(0.010850694444444444,0,0,0.010850694444444444,0,0)" xlink:href="#as" id="H"/><g id="I"><use transform="matrix(0.010850694444444444,0,0,0.010850694444444444,0,0)" xlink:href="#an"/><use transform="matrix(0.010850694444444444,0,0,0.010850694444444444,16.57986111111111,0)" xlink:href="#U"/><use transform="matrix(0.010850694444444444,0,0,0.010850694444444444,29.470486111111104,0)" xlink:href="#am"/><use transform="matrix(0.010850694444444444,0,0,0.010850694444444444,41.525607638888886,0)" xlink:href="#O"/><use transform="matrix(0.010850694444444444,0,0,0.010850694444444444,54.48133680555556,0)" xlink:href="#N"/><use transform="matrix(0.010850694444444444,0,0,0.010850694444444444,63.194444444444436,0)" xlink:href="#X"/><use transform="matrix(0.010850694444444444,0,0,0.010850694444444444,76.32378472222221,0)" xlink:href="#Q"/><use transform="matrix(0.010850694444444444,0,0,0.010850694444444444,88.80208333333333,0)" xlink:href="#X"/><use transform="matrix(0.010850694444444444,0,0,0.010850694444444444,101.93142361111111,0)" xlink:href="#T"/><use transform="matrix(0.010850694444444444,0,0,0.010850694444444444,114.6267361111111,0)" xlink:href="#O"/></g><path d="M98-1322v-168h1126v168H757V0H567v-1322H98" id="at"/><g id="J"><use transform="matrix(0.010850694444444444,0,0,0.010850694444444444,0,0)" xlink:href="#at"/><use transform="matrix(0.010850694444444444,0,0,0.010850694444444444,12.71701388888889,0)" xlink:href="#Q"/><use transform="matrix(0.010850694444444444,0,0,0.010850694444444444,25.1953125,0)" xlink:href="#ac"/><use transform="matrix(0.010850694444444444,0,0,0.010850694444444444,38.80208333333333,0)" xlink:href="#aa"/><use transform="matrix(0.010850694444444444,0,0,0.010850694444444444,44.18402777777777,0)" xlink:href="#O"/><use transform="matrix(0.010850694444444444,0,0,0.010850694444444444,57.35677083333332,0)" xlink:href="#Q"/><use transform="matrix(0.010850694444444444,0,0,0.010850694444444444,69.83506944444443,0)" xlink:href="#M"/></g></defs></g></svg>