<svg xmlns="http://www.w3.org/2000/svg" xmlns:xlink="http://www.w3.org/1999/xlink" xmlns:lucid="lucid" width="2250.21" height="564.27"><g transform="translate(330.21245659722223 -1200)" lucid:page-tab-id="0_0"><path d="M-500 0h2500v2000H-500z" fill="#fff"/><path d="M-20 1362.5h120v120H-20z" fill-opacity="0"/><path d="M70 1432.97v-27.57c0-.32-.1-.55-.27-.7-.44-.4-1.07-.4-1.42 0l-28.2 28.2-29.38 29.37v20.23H96.16c2.14-.08 3.84-1.88 3.84-3.98v-73.12c0-.32-.1-.55-.27-.7-.44-.4-1.07-.4-1.43 0z" fill="#005ba1"/><path d="M10 1384.25c-16.56 0-30-4.93-30-11.17v105.61c.06 2.07 1.86 3.82 4.02 3.82H40v-109.44c0 6.24-13.44 11.17-30 11.17z" fill="url(#a)"/><path d="M69.58 1450.58H81.7c1.32 0 1.98.66 1.98 1.98v12.12c0 1.32-.66 1.98-1.98 1.98H69.58c-1.32 0-1.98-.66-1.98-1.98v-12.12c0-1.32.66-1.98 1.98-1.98zM41.74 1450.58h12.12c1.32 0 1.98.66 1.98 1.98v12.12c0 1.32-.66 1.98-1.98 1.98H41.74c-1.32 0-1.98-.66-1.98-1.98v-12.12c0-1.32.66-1.98 1.98-1.98zM13.9 1450.58h12.12c1.32 0 1.98.66 1.98 1.98v12.12c0 1.32-.66 1.98-1.98 1.98H13.9c-1.32 0-1.98-.66-1.98-1.98v-12.12c0-1.32.66-1.98 1.98-1.98z" fill="#fff"/><path d="M40 1373.1c0 6-13.44 10.88-30 10.88-16.56 0-30-4.6-30-10.9 0-6.26 13.44-10.58 30-10.58 16.56 0 30 4.88 30 10.6" fill="#eaeaea"/><path d="M33 1372.46c0 3.9-10.32 7.07-23.04 7.07-12.7 0-23.04-3.04-23.04-7.07s10.74-6.85 23.14-6.85c12.35 0 22.94 3.04 22.94 6.86" fill="#50e6ff"/><path d="M10.02 1374.08c-6.5-.13-12.03.66-18.24 2.62 6.2 2.02 11.7 2.84 18.24 2.67 6.53.17 12.04-.64 18.24-2.67-6.2-1.96-11.74-2.75-18.24-2.62z" fill="#198ab3"/><use xlink:href="#b" transform="matrix(1,0,0,1,-50,1491.5) translate(31.840277777777786 21.52777777777778)"/><use xlink:href="#c" transform="matrix(1,0,0,1,-50,1491.5) translate(99.78732638888889 21.52777777777778)"/><use xlink:href="#d" transform="matrix(1,0,0,1,-50,1491.5) translate(50.33528645833333 53.79340277777778)"/><path d="M240 1266a6 6 0 0 1 6-6h834a6 6 0 0 1 6 6v388a6 6 0 0 1-6 6H246a6 6 0 0 1-6-6z" stroke="#000" stroke-width="2" fill="#fff"/><path d="M1240 1400h105v120h-105z" fill-opacity="0"/><path d="M1292.5 1400l-52.5 29.88v59.88l52.5 30.24 52.5-29.88v-60zm42.84 83.76l-42.84 24.72-42.84-24.36v-48.24l42.84-24.72 42.84 24.72z" fill="#0078d4"/><path d="M1292.5 1400l-52.5 29.96 9.66 5.92 42.84-24.7 42.84 24.7 9.66-5.92-52.5-29.96z" fill="url(#e)"/><path d="M1317.53 1469.9c-.58-.9-1.23-1.52-2.17-1.97-5.7-12.35-16.4-20.37-29.98-22.26l43.34-24.96-10.04-5.76-49.34 28.48c-1.6.9-2.52 2.43-2.52 4.32 0 2.7 2.24 4.96 5.05 4.96.22 0 .36-.1.58-.18l.87 3.52c13.07-3.07 26.15 2.97 32.3 14.95l-49.13 28.3 10.03 5.76 49.12-28.4c.72-.35 1.23-.9 1.66-1.52l.52-.1c-.08-.17-.15-.35-.15-.62.72-1.44.65-3.07-.14-4.5z" fill="#50e6ff"/><path d="M1271.78 1435.34c-6.8 0-12.36 5.5-12.36 12.32 0 6.86 5.55 12.37 12.36 12.37 6.86 0 12.35-5.5 12.35-12.37 0-6.8-5.5-12.32-12.36-12.32z" fill="url(#f)"/><path d="M1313 1459.94c-6.8 0-12.34 5.5-12.34 12.32 0 6.86 5.55 12.37 12.35 12.37 6.88 0 12.36-5.5 12.36-12.37 0-6.8-5.48-12.32-12.35-12.32z" fill="url(#g)"/><use xlink:href="#b" transform="matrix(1,0,0,1,1210,1529) translate(3.203125 21.52777777777778)"/><use xlink:href="#h" transform="matrix(1,0,0,1,1210,1529) translate(71.1501736111111 21.52777777777778)"/><use xlink:href="#i" transform="matrix(1,0,0,1,1210,1529) translate(34.339192708333336 53.79340277777778)"/><path d="M1020 1580h111v120h-111z" fill-opacity="0"/><path d="M1020 1611.32v3.6l55.5 31.2 49.62-27.96v11.28l-49.62 28.2-52.73-29.88-2.77 1.44v21.72l55.5 31.08 49.62-27.84v11.28l-49.62 28.08-52.73-29.88-2.77 1.56v3.6l55.5 31.2 55.5-31.2v-21.6l-2.78-1.56-52.72 29.88-49.62-28.08v-11.16l49.62 27.84 55.5-31.2v-21.36l-2.78-1.44-52.72 29.88-47.06-26.76 47.06-26.52 38.74 21.84 3.44-1.8v-3L1075.5 1580z" fill="#ff3621"/><use xlink:href="#j" transform="matrix(1,0,0,1,990,1709) translate(54.65147569444445 21.52777777777778)"/><use xlink:href="#k" transform="matrix(1,0,0,1,990,1709) translate(29.152343750000007 53.79340277777778)"/><path d="M1520 1400h90v120h-90z" fill-opacity="0"/><path d="M1610 1404.08v110.28c-.04 3.72-2.12 5.64-5.23 5.64h-34.73v-114.72c0-3.96 1.92-5.28 5.5-5.28h29.63c3.07 0 4.83 1.32 4.83 4.08z" fill="url(#l)"/><path d="M1585.03 1435.04l.04 84.87s-27.42.1-40.06.1l-.07-85.05c0-2.88 3.13-4.95 5.86-4.95h29.2c2.78 0 5.03 2.25 5.03 5.04z" fill="url(#m)"/><path d="M1520 1464.98v47.58c.04 4.86 2.84 7.38 7.35 7.44 10.3-.24 32.57-.06 32.57-.06 0 .06.04-37.5.04-54.96 0-2.76-2.24-4.98-5-4.98h-30.25c-3.02 0-4.66 1.5-4.66 4.98z" fill="url(#n)"/><use xlink:href="#o" transform="matrix(1,0,0,1,1490,1529) translate(28.56987847222222 21.52777777777778)"/><use xlink:href="#p" transform="matrix(1,0,0,1,1490,1529) translate(100.92230902777777 21.52777777777778)"/><use xlink:href="#q" transform="matrix(1,0,0,1,1490,1529) translate(42.32855902777778 53.79340277777778)"/><path d="M1785 1417.5h120v85h-120z" fill-opacity="0"/><path d="M1788.72 1417.5h112.68c1.92-.1 3.48 1.36 3.6 3.23v78.54c-.12 1.87-1.68 3.32-3.6 3.23h-112.68c-1.92.1-3.6-1.36-3.72-3.23v-78.37c.12-1.96 1.68-3.5 3.6-3.4z" fill="url(#r)"/><path d="M1869.02 1427.95h8.25c.65 0 .98.32.98 1v60.4c0 .68-.33 1-.98 1h-8.25c-.65 0-.98-.32-.98-1v-60.4c0-.68.33-1 .98-1z" fill="#fff" fill-opacity=".9"/><path d="M1796.93 1477.6h54.95c.74 0 1.1.34 1.1 1.05v10.8c0 .72-.36 1.07-1.1 1.07h-54.95c-.74 0-1.08-.35-1.08-1.06v-10.8c0-.72.34-1.07 1.08-1.07z" fill="#fff" fill-opacity=".6"/><path d="M1884.52 1453.54h8.7c.5 0 .75.26.75.74v35.4c0 .5-.25.75-.75.75h-8.7c-.5 0-.76-.26-.76-.74v-35.42c0-.48.26-.74.76-.74z" fill="#fff" fill-opacity=".9"/><path d="M1845.76 1431.78l-14.18 25.3-15-15.34-15.5 20.12 3.6 2.83 12.28-15.87 15.6 15.93 17.24-30.67-4.04-2.32z" fill="#fff"/><path d="M1816.76 1439.43c3.22 0 5.84 2.63 5.84 5.87 0 3.23-2.62 5.86-5.84 5.86-3.22 0-5.84-2.63-5.84-5.87s2.62-5.87 5.84-5.87zM1832.6 1453.96c3.22 0 5.84 2.63 5.84 5.87s-2.62 5.87-5.84 5.87c-3.22 0-5.84-2.63-5.84-5.87s2.62-5.87 5.84-5.87zM1847.24 1427.8c3.22 0 5.84 2.6 5.84 5.85 0 3.24-2.62 5.87-5.84 5.87-3.22 0-5.84-2.63-5.84-5.87s2.62-5.87 5.84-5.87zM1803.44 1456.52c3.22 0 5.84 2.62 5.84 5.86s-2.62 5.86-5.84 5.86c-3.23 0-5.84-2.62-5.84-5.86s2.62-5.87 5.84-5.87z" fill="#fff"/><use xlink:href="#s" transform="matrix(1,0,0,1,1755,1511.5) translate(32.69205729166667 21.52777777777778)"/><path d="M1880 1400h40v53.33h-40z" fill-opacity="0"/><path d="M1920 1401.8v49.03c-.02 1.65-.94 2.5-2.33 2.5h-15.43v-50.98c0-1.76.85-2.35 2.45-2.35h13.15c1.37 0 2.15.6 2.15 1.8z" fill="url(#t)"/><path d="M1908.9 1415.57l.02 37.72-17.8.03-.04-37.8c0-1.28 1.4-2.2 2.6-2.2h13c1.22 0 2.22 1 2.22 2.24z" fill="url(#u)"/><path d="M1880 1428.88v21.15c.02 2.16 1.26 3.28 3.27 3.3 4.58-.1 14.47-.02 14.47-.02l.02-24.42c0-1.23-1-2.2-2.22-2.2h-13.44c-1.35 0-2.08.65-2.08 2.2z" fill="url(#v)"/><path d="M100.5 1422.5h122.12" stroke="#3a414a" fill="none"/><path d="M100.5 1422.97h-.5v-.94h.5z" stroke="#3a414a" stroke-width=".05" fill="#3a414a"/><path d="M237.38 1422.5l-14.26 4.63v-9.27z" stroke="#3a414a" fill="#3a414a"/><path d="M1087.5 1460h136.12" stroke="#3a414a" fill="none"/><path d="M1087.5 1460.47h-.5v-.94h.5z" stroke="#3a414a" stroke-width=".05" fill="#3a414a"/><path d="M1238.38 1460l-14.26 4.63v-9.27z" stroke="#3a414a" fill="#3a414a"/><path d="M1345.5 1460h158.12" stroke="#3a414a" fill="none"/><path d="M1342 1459.53h3.5v.94h-3.5z" stroke="#3a414a" stroke-width=".05" fill="#3a414a"/><path d="M1518.38 1460l-14.26 4.63v-9.27z" stroke="#3a414a" fill="#3a414a"/><path d="M1610.5 1460h158.12" stroke="#3a414a" fill="none"/><path d="M1610.5 1460.47h-.5v-.94h.5z" stroke="#3a414a" stroke-width=".05" fill="#3a414a"/><path d="M1783.38 1460l-14.26 4.63v-9.27z" stroke="#3a414a" fill="#3a414a"/><path d="M723.5 1422.5h120.12" stroke="#3a414a" fill="none"/><path d="M720 1422.03h3.5v.94H720z" stroke="#3a414a" stroke-width=".05" fill="#3a414a"/><path d="M858.38 1422.5l-14.26 4.63v-9.27z" stroke="#3a414a" fill="#3a414a"/><path d="M440.5 1422.5h146.12" stroke="#3a414a" fill="none"/><path d="M437 1422.03h3.5v.94H437z" stroke="#3a414a" stroke-width=".05" fill="#3a414a"/><path d="M601.38 1422.5l-14.26 4.63v-9.27z" stroke="#3a414a" fill="#3a414a"/><path d="M180 1200h120v98H180z" fill-opacity="0"/><path d="M297.12 1210.88h-52.2c-.6 0-1.08-.1-1.56-.5l-15-10c-.48-.28-.96-.38-1.56-.38h-43.92c-1.56 0-2.88 1.18-2.88 2.74v92.52c0 1.56 1.32 2.74 2.88 2.74h114.24c1.56 0 2.88-1.18 2.88-2.74v-81.54c0-1.57-1.32-2.84-2.88-2.84z" fill="#005ba1"/><path d="M192.06 1205.37h25c.74 0 1.12.38 1.12 1.13v3.18c0 .75-.38 1.13-1.1 1.13h-25.02c-.74 0-1.12-.37-1.12-1.12v-3.18c0-.75.38-1.13 1.12-1.13z" fill="#fff"/><path d="M191.72 1205.37h3.88c.52 0 .78.26.78.78v3.88c0 .52-.26.78-.78.78h-3.88c-.5 0-.78-.25-.78-.77v-3.88c0-.52.27-.78.78-.78z" fill="#1ac3f2"/><path d="M297.12 1210.68H240c-.84 0-1.44.26-1.92.87l-9.6 9.14c-.6.5-1.2.77-1.92.77h-43.68c-1.56 0-2.88 1.3-2.88 2.88v70.57c0 1.57 1.32 2.8 2.88 2.8h114.24c1.56 0 2.88-1.23 2.88-2.8v-81.28-.17c0-1.48-1.32-2.8-2.88-2.8z" fill="url(#w)"/><path d="M248.34 1225.73c-.17-.05-.37-.05-.57 0 0 0-.64 0-.9.5l-22.3 32.4c-.24.4-.24.78 0 1.12.2.44.57.67 1.03.72h13.23l-5.86 19.63-.07.1c-.16.46.07 1 .54 1.18.17.06.33.06.5 0 .44 0 .64 0 .94-.5l23-32.9v-.72c-.03-.62-.57-1.12-1.2-1.12h-14.13l5.72-19.3c.3-.33.34-.77.07-1.1z" fill="#fff"/><use xlink:href="#x" transform="matrix(1,0,0,1,150,1307) translate(3.8671875 21.52777777777778)"/><use xlink:href="#y" transform="matrix(1,0,0,1,150,1307) translate(71.8142361111111 21.52777777777778)"/><use xlink:href="#z" transform="matrix(1,0,0,1,150,1307) translate(126.43663194444443 21.52777777777778)"/><path d="M-300 1362.5h91v120h-91z" fill-opacity="0"/><path d="M-254.5 1395.2c-25.12 0-45.5-7.05-45.5-16.38v87.3c0 8.92 20.02 16.28 44.86 16.38h.64c25.12 0 45.5-7.05 45.5-16.38v-87.3c0 9.12-20.38 16.38-45.5 16.38z" fill="url(#A)"/><path d="M-209 1378.88c0 9.1-20.38 16.38-45.5 16.38s-45.5-7.08-45.5-16.38c0-9.3 20.38-16.38 45.5-16.38s45.5 7.08 45.5 16.38" fill="#e8e8e8"/><path d="M-219.56 1377.55c0 5.8-15.72 10.5-34.94 10.5s-34.94-4.7-34.94-10.5 15.72-10.4 34.94-10.4 34.94 4.68 34.94 10.4" fill="#50e6ff"/><path d="M-254.45 1380.2c-9.84-.26-18.23.96-27.62 4 9.4 3 17.78 4.17 27.62 3.83 9.88.28 18.28-.96 27.6-4.1-9.38-2.9-17.77-4.04-27.6-3.74z" fill="#198ab3"/><path d="M-226.8 1439.45v-24.02h-6.43v29.16h17.5v-5.15zm-50.67-11.8c-1.4-.54-2.48-1.2-3.65-2.2-.58-.63-.87-1.37-.8-2.26-.07-.86.3-1.63 1.02-2.12.95-.62 1.9-.88 3-.85 2.6-.1 4.95.56 7.06 2.04v-6.06c-2.33-.88-4.52-1.2-7.07-1.1-2.93-.2-5.4.63-7.74 2.36-2.04 1.56-3.06 3.77-3 6.32 0 3.6 2.27 6.4 7.08 8.54 1.68.7 3 1.44 4.45 2.55.65.56 1 1.33 1 2.26 0 .88-.35 1.66-1.08 2.18-1.02.6-2.04.86-3.2.78-3-.03-5.55-1-7.74-2.95v6.54c2.48 1.3 4.82 1.8 7.6 1.7 3.12.18 5.82-.56 8.37-2.33 1.82-1.7 2.62-3.96 2.33-6.43.07-1.88-.5-3.5-1.75-4.9-1.75-1.86-3.57-3.08-5.9-4.04zm37.17 11.25c1.68-2.85 2.4-5.66 2.33-8.9-.14-2.78-.87-5.1-2.33-7.5-1.16-2.3-2.7-4-4.95-5.3-2.26-1.3-4.52-1.84-7.07-1.84-2.85-.08-5.25.55-7.73 1.92-2.26 1.25-3.87 2.92-5.18 5.2-1.3 2.63-1.9 5.15-1.82 8.07 0 2.58.5 4.76 1.68 7.06 1.16 2.3 2.7 3.96 4.95 5.25 2.2 1.33 4.45 2 7.07 2.1l6.13 7.07h8.6l-8.75-7.76c3.06-.93 5.4-2.7 7.07-5.36zm-7.07-1.78c-1.38 1.67-3.28 2.52-5.4 2.48-2.18.08-4.08-.85-5.4-2.55-1.6-2.14-2.25-4.43-2.03-7.06-.22-2.63.44-4.96 2.04-7.07 1.4-1.74 3.28-2.62 5.54-2.62 2.2-.1 4.1.86 5.32 2.63 1.46 2.18 2.05 4.44 1.9 7.06.3 2.62-.36 4.98-1.97 7.13z" fill="url(#B)"/><use xlink:href="#C" transform="matrix(1,0,0,1,-330,1491.5) translate(28.315755208333343 21.52777777777778)"/><use xlink:href="#D" transform="matrix(1,0,0,1,-330,1491.5) translate(0.7875434027777857 53.79340277777778)"/><use xlink:href="#E" transform="matrix(1,0,0,1,-330,1491.5) translate(50.85264756944445 53.79340277777778)"/><path d="M-208.5 1422.5h172.12" stroke="#3a414a" fill="none"/><path d="M-212 1422.03h3.5v.94h-3.5z" stroke="#3a414a" stroke-width=".05" fill="#3a414a"/><path d="M-21.62 1422.5l-14.26 4.63v-9.27z" stroke="#3a414a" fill="#3a414a"/><path d="M320 1362.5h120v120H320z" fill-opacity="0"/><path d="M320 1382.54v79.92c0 11.04 26.88 20.04 60 20.04 33.12 0 60-9 60-20.04v-79.92c0-11.04-26.88-20.04-60-20.04-33.12 0-60 9-60 20.04zm113.28 9.12c-9.96 6.48-30.12 10.8-53.28 10.8s-43.32-4.32-53.28-10.8v17.64s0 .24.24.36c.24.48.84 1.2 1.92 2.04 2.16 1.8 5.76 3.6 10.8 5.28 9.96 3.36 24.24 5.52 40.32 5.52 16.08 0 30.36-2.16 40.32-5.52 5.04-1.68 8.64-3.48 10.8-5.28 1.08-.84 1.68-1.56 1.92-2.04.24-.12.24-.36.24-.36v-17.64zm0 44.16v-17.52c-9.96 6.48-30.12 10.92-53.28 10.92s-43.32-4.44-53.28-10.92v17.64c0 .12 0 .24.24.48.24.36.84 1.08 1.92 1.92 2.16 1.8 5.76 3.6 10.8 5.28 9.96 3.36 24.24 5.52 40.32 5.52 16.08 0 30.36-2.16 40.32-5.52 5.04-1.68 8.64-3.48 10.8-5.28 1.08-.84 1.68-1.56 1.92-1.92.24-.24.24-.36.24-.48v-.12zm-106.56 9.24c9.96 6.36 30.12 10.8 53.28 10.8s43.32-4.44 53.28-10.8v17.52c0 .12 0 .24-.24.48-.24.48-.84 1.08-1.92 2.04-2.16 1.68-5.76 3.48-10.8 5.16-9.96 3.36-24.24 5.52-40.32 5.52-16.08 0-30.36-2.16-40.32-5.52-5.04-1.68-8.64-3.48-10.8-5.16-1.08-.96-1.68-1.56-1.92-2.04-.24-.24-.24-.36-.24-.48v-17.52zm106.56-62.52v.12s0 .12-.24.36c-.24.48-.84 1.2-1.92 2.04-2.16 1.68-5.76 3.6-10.8 5.28-9.96 3.36-24.24 5.52-40.32 5.52-16.08 0-30.36-2.16-40.32-5.52-5.04-1.68-8.64-3.6-10.8-5.28-1.08-.84-1.68-1.56-1.92-2.04-.24-.24-.24-.36-.24-.36v-.12-.12c0-.12 0-.24.24-.48.24-.48.84-1.08 1.92-2.04 2.16-1.68 5.76-3.48 10.8-5.16 9.96-3.36 24.24-5.52 40.32-5.52 16.08 0 30.36 2.16 40.32 5.52 5.04 1.68 8.64 3.48 10.8 5.16 1.08.96 1.68 1.56 1.92 2.04.24.24.24.36.24.48v.12z" fill="#e28e18" fill-rule="evenodd"/><g><use xlink:href="#F" transform="matrix(1,0,0,1,290,1491.5) translate(53.05338541666667 21.52777777777778)"/></g><path d="M603 1362.5h120v120H603z" fill-opacity="0"/><path d="M603 1382.54v79.92c0 11.04 26.88 20.04 60 20.04 33.12 0 60-9 60-20.04v-79.92c0-11.04-26.88-20.04-60-20.04-33.12 0-60 9-60 20.04zm113.28 9.12c-9.96 6.48-30.12 10.8-53.28 10.8s-43.32-4.32-53.28-10.8v17.64s0 .24.24.36c.24.48.84 1.2 1.92 2.04 2.16 1.8 5.76 3.6 10.8 5.28 9.96 3.36 24.24 5.52 40.32 5.52 16.08 0 30.36-2.16 40.32-5.52 5.04-1.68 8.64-3.48 10.8-5.28 1.08-.84 1.68-1.56 1.92-2.04.24-.12.24-.36.24-.36v-17.64zm0 44.16v-17.52c-9.96 6.48-30.12 10.92-53.28 10.92s-43.32-4.44-53.28-10.92v17.64c0 .12 0 .24.24.48.24.36.84 1.08 1.92 1.92 2.16 1.8 5.76 3.6 10.8 5.28 9.96 3.36 24.24 5.52 40.32 5.52 16.08 0 30.36-2.16 40.32-5.52 5.04-1.68 8.64-3.48 10.8-5.28 1.08-.84 1.68-1.56 1.92-1.92.24-.24.24-.36.24-.48v-.12zm-106.56 9.24c9.96 6.36 30.12 10.8 53.28 10.8s43.32-4.44 53.28-10.8v17.52c0 .12 0 .24-.24.48-.24.48-.84 1.08-1.92 2.04-2.16 1.68-5.76 3.48-10.8 5.16-9.96 3.36-24.24 5.52-40.32 5.52-16.08 0-30.36-2.16-40.32-5.52-5.04-1.68-8.64-3.48-10.8-5.16-1.08-.96-1.68-1.56-1.92-2.04-.24-.24-.24-.36-.24-.48v-17.52zm106.56-62.52v.12s0 .12-.24.36c-.24.48-.84 1.2-1.92 2.04-2.16 1.68-5.76 3.6-10.8 5.28-9.96 3.36-24.24 5.52-40.32 5.52-16.08 0-30.36-2.16-40.32-5.52-5.04-1.68-8.64-3.6-10.8-5.28-1.08-.84-1.68-1.56-1.92-2.04-.24-.24-.24-.36-.24-.36v-.12-.12c0-.12 0-.24.24-.48.24-.48.84-1.08 1.92-2.04 2.16-1.68 5.76-3.48 10.8-5.16 9.96-3.36 24.24-5.52 40.32-5.52 16.08 0 30.36 2.16 40.32 5.52 5.04 1.68 8.64 3.48 10.8 5.16 1.08.96 1.68 1.56 1.92 2.04.24.24.24.36.24.48v.12z" fill="#ced4db" fill-rule="evenodd"/><g><use xlink:href="#G" transform="matrix(1,0,0,1,573,1491.5) translate(60.746527777777786 21.52777777777778)"/></g><path d="M860 1362.5h120v120H860z" fill-opacity="0"/><path d="M860 1382.54v79.92c0 11.04 26.88 20.04 60 20.04 33.12 0 60-9 60-20.04v-79.92c0-11.04-26.88-20.04-60-20.04-33.12 0-60 9-60 20.04zm113.28 9.12c-9.96 6.48-30.12 10.8-53.28 10.8s-43.32-4.32-53.28-10.8v17.64s0 .24.24.36c.24.48.84 1.2 1.92 2.04 2.16 1.8 5.76 3.6 10.8 5.28 9.96 3.36 24.24 5.52 40.32 5.52 16.08 0 30.36-2.16 40.32-5.52 5.04-1.68 8.64-3.48 10.8-5.28 1.08-.84 1.68-1.56 1.92-2.04.24-.12.24-.36.24-.36v-17.64zm0 44.16v-17.52c-9.96 6.48-30.12 10.92-53.28 10.92s-43.32-4.44-53.28-10.92v17.64c0 .12 0 .24.24.48.24.36.84 1.08 1.92 1.92 2.16 1.8 5.76 3.6 10.8 5.28 9.96 3.36 24.24 5.52 40.32 5.52 16.08 0 30.36-2.16 40.32-5.52 5.04-1.68 8.64-3.48 10.8-5.28 1.08-.84 1.68-1.56 1.92-1.92.24-.24.24-.36.24-.48v-.12zm-106.56 9.24c9.96 6.36 30.12 10.8 53.28 10.8s43.32-4.44 53.28-10.8v17.52c0 .12 0 .24-.24.48-.24.48-.84 1.08-1.92 2.04-2.16 1.68-5.76 3.48-10.8 5.16-9.96 3.36-24.24 5.52-40.32 5.52-16.08 0-30.36-2.16-40.32-5.52-5.04-1.68-8.64-3.48-10.8-5.16-1.08-.96-1.68-1.56-1.92-2.04-.24-.24-.24-.36-.24-.48v-17.52zm106.56-62.52v.12s0 .12-.24.36c-.24.48-.84 1.2-1.92 2.04-2.16 1.68-5.76 3.6-10.8 5.28-9.96 3.36-24.24 5.52-40.32 5.52-16.08 0-30.36-2.16-40.32-5.52-5.04-1.68-8.64-3.6-10.8-5.28-1.08-.84-1.68-1.56-1.92-2.04-.24-.24-.24-.36-.24-.36v-.12-.12c0-.12 0-.24.24-.48.24-.48.84-1.08 1.92-2.04 2.16-1.68 5.76-3.48 10.8-5.16 9.96-3.36 24.24-5.52 40.32-5.52 16.08 0 30.36 2.16 40.32 5.52 5.04 1.68 8.64 3.48 10.8 5.16 1.08.96 1.68 1.56 1.92 2.04.24.24.24.36.24.48v.12z" fill="#e2ca18" fill-rule="evenodd"/><g><use xlink:href="#H" transform="matrix(1,0,0,1,830,1491.5) translate(65.55338541666667 21.52777777777778)"/></g><defs><linearGradient gradientUnits="userSpaceOnUse" id="a" x1="-20" y1="1427.94" x2="40" y2="1427.94"><stop offset="0%" stop-color="#005ba1"/><stop offset="7%" stop-color="#0060a9"/><stop offset="36%" stop-color="#0071c8"/><stop offset="52%" stop-color="#0078d4"/><stop offset="64%" stop-color="#0074cd"/><stop offset="81%" stop-color="#006abb"/><stop offset="99%" stop-color="#005ba1"/></linearGradient><path d="M52 0l541-1490h220L1361 0h-200l-149-416H398L254 0H52zm404-582h497c-103-290-145-390-251-756-108 377-145 460-246 756" id="I"/><path d="M126 0v-134l627-806v-11H146v-167h839v143L376-178v11h629V0H126" id="J"/><path d="M537 14c-226 0-379-139-379-422v-710h180v695c0 172 97 275 253 275 160 0 281-109 281-300v-670h181V0H879v-209C806-46 684 14 537 14" id="K"/><path d="M158 0v-1118h174v172h12c41-113 157-188 290-188 26 0 70 2 91 3v181c-11-2-60-10-108-10-161 0-279 109-279 260V0H158" id="L"/><path d="M628 24c-324 0-524-230-524-574 0-343 198-582 503-582 237 0 487 146 487 559v75H286c9 234 145 362 343 362 132 0 231-58 273-172l174 48C1024-91 857 24 628 24zM287-650h624c-17-190-120-322-304-322-192 0-309 151-320 322" id="M"/><g id="b"><use transform="matrix(0.010850694444444444,0,0,0.010850694444444444,0,0)" xlink:href="#I"/><use transform="matrix(0.010850694444444444,0,0,0.010850694444444444,15.33203125,0)" xlink:href="#J"/><use transform="matrix(0.010850694444444444,0,0,0.010850694444444444,27.604166666666664,0)" xlink:href="#K"/><use transform="matrix(0.010850694444444444,0,0,0.010850694444444444,40.744357638888886,0)" xlink:href="#L"/><use transform="matrix(0.010850694444444444,0,0,0.010850694444444444,48.741319444444436,0)" xlink:href="#M"/></g><path d="M645 0H180v-1490h484c435 0 692 280 692 742 0 466-257 748-711 748zM370-168h263c363 0 539-218 539-580 0-358-176-574-521-574H370v1154" id="N"/><path d="M471 26C259 26 90-98 90-318c0-256 228-303 435-329 202-27 287-16 287-108 0-139-79-219-234-219-161 0-248 86-283 164l-173-57c86-203 278-265 451-265 150 0 419 46 419 395V0H815v-152h-12C765-73 660 26 471 26zm31-159c199 0 310-134 310-271v-155c-30 35-226 55-295 64-131 17-246 59-246 186 0 116 97 176 231 176" id="O"/><path d="M598-1118v154H368v674c0 100 37 144 132 144 23 0 62-6 92-12L629-6c-37 13-88 20-134 20-193 0-307-107-307-290v-688H20v-154h168v-266h180v266h230" id="P"/><g id="c"><use transform="matrix(0.010850694444444444,0,0,0.010850694444444444,0,0)" xlink:href="#N"/><use transform="matrix(0.010850694444444444,0,0,0.010850694444444444,16.03732638888889,0)" xlink:href="#O"/><use transform="matrix(0.010850694444444444,0,0,0.010850694444444444,28.515625,0)" xlink:href="#P"/><use transform="matrix(0.010850694444444444,0,0,0.010850694444444444,35.89409722222222,0)" xlink:href="#O"/></g><path d="M180 0v-1490h901v168H370v510h643v168H370V0H180" id="Q"/><path d="M613 24c-304 0-509-231-509-576 0-350 205-580 509-580 216 0 392 114 453 309l-173 49c-33-115-133-197-280-197-223 0-326 196-326 419 0 220 103 415 326 415 150 0 252-85 285-206l172 49C1010-95 832 24 613 24" id="R"/><path d="M613 24c-304 0-509-231-509-576 0-350 205-580 509-580 305 0 511 230 511 580 0 345-206 576-511 576zm0-161c226 0 329-195 329-415 0-222-103-419-329-419-223 0-326 196-326 419 0 220 103 415 326 415" id="S"/><path d="M140 405l46-156c120 36 205 19 263-150l32-93L54-1118h197c107 313 237 620 324 950 87-331 219-637 326-950h196L606 167c-68 178-176 259-334 259-64 0-113-12-132-21" id="T"/><g id="d"><use transform="matrix(0.010850694444444444,0,0,0.010850694444444444,0,0)" xlink:href="#Q"/><use transform="matrix(0.010850694444444444,0,0,0.010850694444444444,12.57595486111111,0)" xlink:href="#O"/><use transform="matrix(0.010850694444444444,0,0,0.010850694444444444,25.05425347222222,0)" xlink:href="#R"/><use transform="matrix(0.010850694444444444,0,0,0.010850694444444444,37.74956597222222,0)" xlink:href="#P"/><use transform="matrix(0.010850694444444444,0,0,0.010850694444444444,44.80251736111111,0)" xlink:href="#S"/><use transform="matrix(0.010850694444444444,0,0,0.010850694444444444,58.1271701388889,0)" xlink:href="#L"/><use transform="matrix(0.010850694444444444,0,0,0.010850694444444444,66.84027777777779,0)" xlink:href="#T"/></g><linearGradient gradientUnits="userSpaceOnUse" id="e" x1="1292.5" y1="1435.88" x2="1292.5" y2="1400"><stop offset="19.9%" stop-color="#005ba1"/><stop offset="100%" stop-color="#0078d4"/></linearGradient><linearGradient gradientUnits="userSpaceOnUse" id="f" x1="1292.45" y1="1485.02" x2="1292.45" y2="1435.47"><stop offset="0%" stop-color="#198ab3"/><stop offset="17.2%" stop-color="#32bedd"/><stop offset="50%" stop-color="#50e6ff"/><stop offset="50%" stop-color="#4fe4fd"/><stop offset="50%" stop-color="#4bddf8"/><stop offset="50%" stop-color="#44d2ee"/><stop offset="50%" stop-color="#3ac1e0"/><stop offset="50%" stop-color="#2dabce"/><stop offset="50%" stop-color="#1d90b8"/><stop offset="50%" stop-color="#198ab3"/><stop offset="66.2%" stop-color="#32bedd"/><stop offset="97.5%" stop-color="#50e6ff"/></linearGradient><linearGradient gradientUnits="userSpaceOnUse" id="g" x1="1333.68" y1="1509.62" x2="1333.68" y2="1460.07"><stop offset="0%" stop-color="#198ab3"/><stop offset="17.2%" stop-color="#32bedd"/><stop offset="50%" stop-color="#50e6ff"/><stop offset="50%" stop-color="#4fe4fd"/><stop offset="50%" stop-color="#4bddf8"/><stop offset="50%" stop-color="#44d2ee"/><stop offset="50%" stop-color="#3ac1e0"/><stop offset="50%" stop-color="#2dabce"/><stop offset="50%" stop-color="#1d90b8"/><stop offset="50%" stop-color="#198ab3"/><stop offset="66.2%" stop-color="#32bedd"/><stop offset="97.5%" stop-color="#50e6ff"/></linearGradient><path d="M657 26c-323 0-524-166-541-416h195c15 169 171 246 346 246 202 0 356-106 356-265 5-203-294-238-475-293-239-73-380-191-380-389 0-252 224-419 512-419 294 0 499 171 508 396H992c-17-145-151-228-328-228-193 0-321 102-321 242 0 156 175 211 284 241l149 41c160 44 422 134 422 412 0 244-197 432-541 432" id="U"/><path d="M338-670V0H158v-1118h173l1 207c72-158 192-221 342-221 226 0 378 139 378 422V0H872v-695c0-172-96-275-252-275-161 0-282 109-282 300" id="V"/><path d="M158 418v-1536h174v179h20c37-59 106-193 324-193 279 0 474 222 474 576 0 356-194 580-473 580-213 0-288-135-325-197h-14v591H158zm492-555c209 0 317-186 317-421 0-232-105-413-317-413-206 0-314 166-314 413 0 249 111 421 314 421" id="W"/><path d="M538 24C308 24 148-78 108-271l171-41c32 123 123 178 257 178 156 0 256-77 256-169 0-77-54-128-164-154l-186-44c-203-48-300-148-300-305 0-192 176-326 414-326 230 0 351 112 402 269l-163 42c-31-80-94-158-238-158-133 0-233 69-233 162 0 83 57 129 188 160l169 40c203 48 298 149 298 302 0 196-179 339-441 339" id="X"/><g id="h"><use transform="matrix(0.010850694444444444,0,0,0.010850694444444444,0,0)" xlink:href="#U"/><use transform="matrix(0.010850694444444444,0,0,0.010850694444444444,14.2578125,0)" xlink:href="#T"/><use transform="matrix(0.010850694444444444,0,0,0.010850694444444444,26.74696180555556,0)" xlink:href="#V"/><use transform="matrix(0.010850694444444444,0,0,0.010850694444444444,39.876302083333336,0)" xlink:href="#O"/><use transform="matrix(0.010850694444444444,0,0,0.010850694444444444,52.35460069444444,0)" xlink:href="#W"/><use transform="matrix(0.010850694444444444,0,0,0.010850694444444444,65.96137152777777,0)" xlink:href="#X"/><use transform="matrix(0.010850694444444444,0,0,0.010850694444444444,77.69097222222221,0)" xlink:href="#M"/></g><path d="M338-1490V0H158v-1490h180" id="Y"/><path d="M158 0v-1118h180V0H158zm91-1301c-68 0-125-53-125-119s57-119 125-119c69 0 126 53 126 119s-57 119-126 119" id="Z"/><g id="i"><use transform="matrix(0.010850694444444444,0,0,0.010850694444444444,0,0)" xlink:href="#I"/><use transform="matrix(0.010850694444444444,0,0,0.010850694444444444,15.33203125,0)" xlink:href="#V"/><use transform="matrix(0.010850694444444444,0,0,0.010850694444444444,28.461371527777775,0)" xlink:href="#O"/><use transform="matrix(0.010850694444444444,0,0,0.010850694444444444,40.939670138888886,0)" xlink:href="#Y"/><use transform="matrix(0.010850694444444444,0,0,0.010850694444444444,46.43012152777778,0)" xlink:href="#T"/><use transform="matrix(0.010850694444444444,0,0,0.010850694444444444,59.244791666666664,0)" xlink:href="#P"/><use transform="matrix(0.010850694444444444,0,0,0.010850694444444444,66.51475694444444,0)" xlink:href="#Z"/><use transform="matrix(0.010850694444444444,0,0,0.010850694444444444,71.89670138888889,0)" xlink:href="#R"/><use transform="matrix(0.010850694444444444,0,0,0.010850694444444444,84.59201388888889,0)" xlink:href="#X"/></g><g id="j"><use transform="matrix(0.010850694444444444,0,0,0.010850694444444444,0,0)" xlink:href="#I"/><use transform="matrix(0.010850694444444444,0,0,0.010850694444444444,15.33203125,0)" xlink:href="#J"/><use transform="matrix(0.010850694444444444,0,0,0.010850694444444444,27.604166666666664,0)" xlink:href="#K"/><use transform="matrix(0.010850694444444444,0,0,0.010850694444444444,40.744357638888886,0)" xlink:href="#L"/><use transform="matrix(0.010850694444444444,0,0,0.010850694444444444,48.741319444444436,0)" xlink:href="#M"/></g><path d="M677 24c-213 0-288-135-325-197h-20V0H158v-1490h180v551h14c37-59 106-193 324-193 279 0 474 222 474 576 0 356-194 580-473 580zm-27-161c209 0 317-186 317-421 0-232-105-413-317-413-206 0-314 166-314 413 0 249 111 421 314 421" id="aa"/><path d="M158 0v-1490h180v865h22l478-493h223L593-638 1096 0H865L456-523 338-412V0H158" id="ab"/><g id="k"><use transform="matrix(0.010850694444444444,0,0,0.010850694444444444,0,0)" xlink:href="#N"/><use transform="matrix(0.010850694444444444,0,0,0.010850694444444444,16.03732638888889,0)" xlink:href="#O"/><use transform="matrix(0.010850694444444444,0,0,0.010850694444444444,28.515625,0)" xlink:href="#P"/><use transform="matrix(0.010850694444444444,0,0,0.010850694444444444,35.89409722222222,0)" xlink:href="#O"/><use transform="matrix(0.010850694444444444,0,0,0.010850694444444444,48.37239583333333,0)" xlink:href="#aa"/><use transform="matrix(0.010850694444444444,0,0,0.010850694444444444,61.97916666666666,0)" xlink:href="#L"/><use transform="matrix(0.010850694444444444,0,0,0.010850694444444444,70.69227430555554,0)" xlink:href="#Z"/><use transform="matrix(0.010850694444444444,0,0,0.010850694444444444,76.07421874999999,0)" xlink:href="#R"/><use transform="matrix(0.010850694444444444,0,0,0.010850694444444444,88.76953124999999,0)" xlink:href="#ab"/><use transform="matrix(0.010850694444444444,0,0,0.010850694444444444,100.96571180555556,0)" xlink:href="#X"/></g><linearGradient gradientUnits="userSpaceOnUse" id="l" x1="1562.05" y1="1400.63" x2="1614.74" y2="1512.44"><stop offset="0%" stop-color="#e6ad10"/><stop offset="100%" stop-color="#c87e0e"/></linearGradient><linearGradient gradientUnits="userSpaceOnUse" id="m" x1="1541.62" y1="1431.7" x2="1586.14" y2="1517.73"><stop offset="0%" stop-color="#f6d751"/><stop offset="100%" stop-color="#e6ad10"/></linearGradient><linearGradient gradientUnits="userSpaceOnUse" id="n" x1="1525.51" y1="1457.67" x2="1550" y2="1515.77"><stop offset="0%" stop-color="#f9e589"/><stop offset="100%" stop-color="#f6d751"/></linearGradient><path d="M180 0v-1490h510c348 0 508 209 508 474 0 266-160 477-507 477H370V0H180zm190-706h312c236 0 327-133 327-310 0-176-91-307-329-307H370v617" id="ac"/><path d="M409 0L70-1118h191c89 329 165 560 243 925 75-353 154-601 240-925h192c85 325 161 564 235 922 77-354 157-598 244-922h191L1267 0h-179c-86-307-176-590-250-913C763-588 675-308 588 0H409" id="ad"/><g id="o"><use transform="matrix(0.010850694444444444,0,0,0.010850694444444444,0,0)" xlink:href="#ac"/><use transform="matrix(0.010850694444444444,0,0,0.010850694444444444,14.073350694444445,0)" xlink:href="#S"/><use transform="matrix(0.010850694444444444,0,0,0.010850694444444444,26.99652777777778,0)" xlink:href="#ad"/><use transform="matrix(0.010850694444444444,0,0,0.010850694444444444,44.78081597222222,0)" xlink:href="#M"/><use transform="matrix(0.010850694444444444,0,0,0.010850694444444444,57.736545138888886,0)" xlink:href="#L"/></g><path d="M180 0v-1490h528c311 0 458 177 458 395 0 191-114 278-244 313v14c139 9 302 137 302 371 0 225-148 397-499 397H180zm190-168h350c232 0 321-102 321-231 0-149-120-277-311-277H370v508zm0-668h328c160 0 286-101 286-255 0-129-87-231-280-231H370v486" id="ae"/><path d="M370-1490V0H180v-1490h190" id="af"/><g id="p"><use transform="matrix(0.010850694444444444,0,0,0.010850694444444444,0,0)" xlink:href="#ae"/><use transform="matrix(0.010850694444444444,0,0,0.010850694444444444,14.539930555555555,0)" xlink:href="#af"/></g><path d="M180 0v-1490h270l367 940c28 72 75 218 110 339 35-117 81-264 110-339l362-940h271V0h-187c2-448-5-837 7-1287-157 497-311 829-483 1287H842C666-458 514-784 354-1284c12 438 5 843 7 1284H180" id="ag"/><path d="M577 24c-279 0-473-224-473-580 0-354 195-576 474-576 218 0 287 134 324 193h14v-551h180V0H922v-173h-20C865-111 790 24 577 24zm27-161c203 0 314-172 314-421 0-247-108-413-314-413-212 0-317 181-317 413 0 235 108 421 317 421" id="ah"/><g id="q"><use transform="matrix(0.010850694444444444,0,0,0.010850694444444444,0,0)" xlink:href="#ag"/><use transform="matrix(0.010850694444444444,0,0,0.010850694444444444,20.07378472222222,0)" xlink:href="#S"/><use transform="matrix(0.010850694444444444,0,0,0.010850694444444444,33.3984375,0)" xlink:href="#ah"/><use transform="matrix(0.010850694444444444,0,0,0.010850694444444444,47.00520833333333,0)" xlink:href="#M"/><use transform="matrix(0.010850694444444444,0,0,0.010850694444444444,59.960937499999986,0)" xlink:href="#Y"/></g><linearGradient gradientUnits="userSpaceOnUse" id="r" x1="1845" y1="1404.77" x2="1845" y2="1516.03"><stop offset="0%" stop-color="#6cc6b9"/><stop offset="46%" stop-color="#6ac4b7"/><stop offset="64%" stop-color="#62bdb0"/><stop offset="77%" stop-color="#56b1a4"/><stop offset="100%" stop-color="#258277"/></linearGradient><path d="M338-670V0H158v-1490h180v566c73-149 190-208 336-208 226 0 379 139 379 422V0H872v-695c0-172-96-275-252-275-161 0-282 109-282 300" id="ai"/><g id="s"><use transform="matrix(0.010850694444444444,0,0,0.010850694444444444,0,0)" xlink:href="#N"/><use transform="matrix(0.010850694444444444,0,0,0.010850694444444444,16.03732638888889,0)" xlink:href="#O"/><use transform="matrix(0.010850694444444444,0,0,0.010850694444444444,28.515625,0)" xlink:href="#X"/><use transform="matrix(0.010850694444444444,0,0,0.010850694444444444,40.24522569444444,0)" xlink:href="#ai"/><use transform="matrix(0.010850694444444444,0,0,0.010850694444444444,53.385416666666664,0)" xlink:href="#aa"/><use transform="matrix(0.010850694444444444,0,0,0.010850694444444444,66.9921875,0)" xlink:href="#S"/><use transform="matrix(0.010850694444444444,0,0,0.010850694444444444,80.53385416666666,0)" xlink:href="#O"/><use transform="matrix(0.010850694444444444,0,0,0.010850694444444444,93.01215277777777,0)" xlink:href="#L"/><use transform="matrix(0.010850694444444444,0,0,0.010850694444444444,101.00911458333333,0)" xlink:href="#ah"/></g><linearGradient gradientUnits="userSpaceOnUse" id="t" x1="1898.69" y1="1400.28" x2="1922.11" y2="1449.97"><stop offset="0%" stop-color="#e6ad10"/><stop offset="100%" stop-color="#c87e0e"/></linearGradient><linearGradient gradientUnits="userSpaceOnUse" id="u" x1="1889.61" y1="1414.09" x2="1909.39" y2="1452.33"><stop offset="0%" stop-color="#f6d751"/><stop offset="100%" stop-color="#e6ad10"/></linearGradient><linearGradient gradientUnits="userSpaceOnUse" id="v" x1="1882.45" y1="1425.63" x2="1893.33" y2="1451.45"><stop offset="0%" stop-color="#f9e589"/><stop offset="100%" stop-color="#f6d751"/></linearGradient><linearGradient gradientUnits="userSpaceOnUse" id="w" x1="241.69" y1="1192.18" x2="238.94" y2="1302.09"><stop offset="0%" stop-color="#32d4f5"/><stop offset="23%" stop-color="#31d0f1"/><stop offset="46%" stop-color="#2cc3e6"/><stop offset="70%" stop-color="#25afd4"/><stop offset="94%" stop-color="#1c92ba"/><stop offset="100%" stop-color="#198ab3"/></linearGradient><g id="x"><use transform="matrix(0.010850694444444444,0,0,0.010850694444444444,0,0)" xlink:href="#I"/><use transform="matrix(0.010850694444444444,0,0,0.010850694444444444,15.33203125,0)" xlink:href="#J"/><use transform="matrix(0.010850694444444444,0,0,0.010850694444444444,27.604166666666664,0)" xlink:href="#K"/><use transform="matrix(0.010850694444444444,0,0,0.010850694444444444,40.744357638888886,0)" xlink:href="#L"/><use transform="matrix(0.010850694444444444,0,0,0.010850694444444444,48.741319444444436,0)" xlink:href="#M"/></g><g id="y"><use transform="matrix(0.010850694444444444,0,0,0.010850694444444444,0,0)" xlink:href="#N"/><use transform="matrix(0.010850694444444444,0,0,0.010850694444444444,16.03732638888889,0)" xlink:href="#O"/><use transform="matrix(0.010850694444444444,0,0,0.010850694444444444,28.515625,0)" xlink:href="#P"/><use transform="matrix(0.010850694444444444,0,0,0.010850694444444444,35.89409722222222,0)" xlink:href="#O"/></g><path d="M180 0v-1490h190v1322h690V0H180" id="aj"/><g id="z"><use transform="matrix(0.010850694444444444,0,0,0.010850694444444444,0,0)" xlink:href="#aj"/><use transform="matrix(0.010850694444444444,0,0,0.010850694444444444,12.565104166666666,0)" xlink:href="#O"/><use transform="matrix(0.010850694444444444,0,0,0.010850694444444444,25.04340277777778,0)" xlink:href="#ab"/><use transform="matrix(0.010850694444444444,0,0,0.010850694444444444,36.74045138888889,0)" xlink:href="#M"/></g><linearGradient gradientUnits="userSpaceOnUse" id="A" x1="-300" y1="1430.66" x2="-209" y2="1430.66"><stop offset="0%" stop-color="#005ba1"/><stop offset="7%" stop-color="#0060a9"/><stop offset="36%" stop-color="#0071c8"/><stop offset="52%" stop-color="#0078d4"/><stop offset="64%" stop-color="#0074cd"/><stop offset="82%" stop-color="#006abb"/><stop offset="100%" stop-color="#005ba1"/></linearGradient><radialGradient gradientUnits="userSpaceOnUse" id="B" fx="-251.93" fy="1433.58" cx="-251.93" cy="1433.58" r="25.44"><stop offset="0%" stop-color="#f2f2f2"/><stop offset="58%" stop-color="#eee"/><stop offset="100%" stop-color="#e6e6e6"/></radialGradient><path d="M784 20c-382 0-662-292-662-764 0-473 280-766 662-766s660 293 660 766c0 472-278 764-660 764zm0-176c266 0 475-207 475-588 0-383-209-590-475-590-268 0-477 208-477 590 0 380 209 588 477 588" id="ak"/><path d="M798-719v166H144v-166h654" id="al"/><path d="M158 0v-1118h175l1 205c55-151 181-225 313-225 147 0 245 90 285 228 53-141 190-228 352-228 194 0 352 125 352 384V0h-181v-749c0-161-105-225-225-225-151 0-243 103-243 244V0H807v-767c0-124-93-207-219-207-131 0-250 92-250 270V0H158" id="am"/><g id="C"><use transform="matrix(0.010850694444444444,0,0,0.010850694444444444,0,0)" xlink:href="#ak"/><use transform="matrix(0.010850694444444444,0,0,0.010850694444444444,16.9921875,0)" xlink:href="#V"/><use transform="matrix(0.010850694444444444,0,0,0.010850694444444444,30.121527777777775,0)" xlink:href="#al"/><use transform="matrix(0.010850694444444444,0,0,0.010850694444444444,40.34288194444444,0)" xlink:href="#W"/><use transform="matrix(0.010850694444444444,0,0,0.010850694444444444,53.94965277777778,0)" xlink:href="#L"/><use transform="matrix(0.010850694444444444,0,0,0.010850694444444444,61.94661458333332,0)" xlink:href="#M"/><use transform="matrix(0.010850694444444444,0,0,0.010850694444444444,74.90234374999999,0)" xlink:href="#am"/></g><path d="M784 20c-382 0-662-292-662-764 0-473 280-766 662-766s660 293 660 766c0 282-99 499-260 629l192 255h-198L1049-33C969 2 880 20 784 20zm-62-486h198l156 205c112-98 183-261 183-483 0-383-209-590-475-590-268 0-477 208-477 590 0 380 209 588 477 588 54 0 106-9 154-25" id="an"/><g id="D"><use transform="matrix(0.010850694444444444,0,0,0.010850694444444444,0,0)" xlink:href="#U"/><use transform="matrix(0.010850694444444444,0,0,0.010850694444444444,14.2578125,0)" xlink:href="#an"/><use transform="matrix(0.010850694444444444,0,0,0.010850694444444444,31.25,0)" xlink:href="#aj"/></g><g id="E"><use transform="matrix(0.010850694444444444,0,0,0.010850694444444444,0,0)" xlink:href="#N"/><use transform="matrix(0.010850694444444444,0,0,0.010850694444444444,16.03732638888889,0)" xlink:href="#O"/><use transform="matrix(0.010850694444444444,0,0,0.010850694444444444,28.515625,0)" xlink:href="#P"/><use transform="matrix(0.010850694444444444,0,0,0.010850694444444444,35.89409722222222,0)" xlink:href="#O"/><use transform="matrix(0.010850694444444444,0,0,0.010850694444444444,48.37239583333333,0)" xlink:href="#aa"/><use transform="matrix(0.010850694444444444,0,0,0.010850694444444444,62.19618055555554,0)" xlink:href="#O"/><use transform="matrix(0.010850694444444444,0,0,0.010850694444444444,74.67447916666666,0)" xlink:href="#X"/><use transform="matrix(0.010850694444444444,0,0,0.010850694444444444,86.4040798611111,0)" xlink:href="#M"/></g><g id="F"><use transform="matrix(0.010850694444444444,0,0,0.010850694444444444,0,0)" xlink:href="#ae"/><use transform="matrix(0.010850694444444444,0,0,0.010850694444444444,14.539930555555555,0)" xlink:href="#L"/><use transform="matrix(0.010850694444444444,0,0,0.010850694444444444,22.53689236111111,0)" xlink:href="#S"/><use transform="matrix(0.010850694444444444,0,0,0.010850694444444444,35.861545138888886,0)" xlink:href="#V"/><use transform="matrix(0.010850694444444444,0,0,0.010850694444444444,48.990885416666664,0)" xlink:href="#J"/><use transform="matrix(0.010850694444444444,0,0,0.010850694444444444,60.937499999999986,0)" xlink:href="#M"/></g><path d="M481 0L54-1118h197c107 314 236 620 325 951 87-331 217-637 324-951h197L670 0H481" id="ao"/><g id="G"><use transform="matrix(0.010850694444444444,0,0,0.010850694444444444,0,0)" xlink:href="#U"/><use transform="matrix(0.010850694444444444,0,0,0.010850694444444444,14.2578125,0)" xlink:href="#Z"/><use transform="matrix(0.010850694444444444,0,0,0.010850694444444444,19.639756944444443,0)" xlink:href="#Y"/><use transform="matrix(0.010850694444444444,0,0,0.010850694444444444,25.13020833333333,0)" xlink:href="#ao"/><use transform="matrix(0.010850694444444444,0,0,0.010850694444444444,37.18532986111111,0)" xlink:href="#M"/><use transform="matrix(0.010850694444444444,0,0,0.010850694444444444,50.14105902777778,0)" xlink:href="#L"/></g><path d="M789 20c-398 0-667-293-667-764 0-473 273-766 655-766 315 0 558 198 612 487h-196c-61-191-204-311-415-311-262 0-471 207-471 590 0 380 208 588 482 588 249 0 420-165 425-427H828v-166h572v163c0 370-256 606-611 606" id="ap"/><g id="H"><use transform="matrix(0.010850694444444444,0,0,0.010850694444444444,0,0)" xlink:href="#ap"/><use transform="matrix(0.010850694444444444,0,0,0.010850694444444444,16.57986111111111,0)" xlink:href="#S"/><use transform="matrix(0.010850694444444444,0,0,0.010850694444444444,29.90451388888889,0)" xlink:href="#Y"/><use transform="matrix(0.010850694444444444,0,0,0.010850694444444444,35.28645833333333,0)" xlink:href="#ah"/></g></defs></g></svg>